<?xml version="1.0" encoding="UTF-8" standalone="no"?>
<!DOCTYPE svg PUBLIC "-//W3C//DTD SVG 1.1//EN" "http://www.w3.org/Graphics/SVG/1.1/DTD/svg11.dtd">
<svg xmlns="http://www.w3.org/2000/svg" xmlns:xlink="http://www.w3.org/1999/xlink" version="1.1" width="100.075pt" height="64.259pt" viewBox="0 0 100.075 64.259">
<g enable-background="new">
<text xml:space="preserve" transform="matrix(1 0 -0 1 0 64.259)" font-size="9.9626" font-family="CMMI10" font-style="italic"><tspan y="-48.485" x="18.929">H</tspan></text>
<path transform="matrix(1,0,0,-1,5.978,12.370003)" stroke-width=".398" stroke-linecap="round" stroke-linejoin="round" fill="none" stroke="#000000" d="M 25.031 6.393 L 9.963 6.393 "/>
<path transform="matrix(1,0,0,-1,5.978,12.370003)" stroke-width=".398" stroke-linecap="round" stroke-linejoin="round" fill="none" stroke="#000000" d="M 9.963 6.393 L 9.963 -6.393 "/>
<path transform="matrix(1,0,0,-1,5.978,12.370003)" stroke-width=".398" stroke-linecap="round" stroke-linejoin="round" fill="none" stroke="#000000" d="M 9.963 -6.393 L 25.031 -6.393 "/>
<path transform="matrix(1,0,0,-1,5.978,12.370003)" stroke-width=".398" stroke-linecap="round" stroke-linejoin="round" fill="none" stroke="#000000" d="M 25.031 -6.393 L 25.031 6.393 "/>
<path transform="matrix(1,0,0,-1,5.978,12.370003)" stroke-width=".398" stroke-linecap="round" stroke-linejoin="round" fill="none" stroke="#000000" d="M 9.963 0 L 0 0 "/>
<path transform="matrix(1,0,0,-1,45.056,12.370003)" stroke-width=".398" stroke-linecap="round" stroke-linejoin="round" fill="none" stroke="#000000" d="M 0 1.893 C -1.044 1.893 -1.893 1.044 -1.893 0 "/>
<path transform="matrix(1,0,0,-1,45.056,12.370003)" stroke-width=".398" stroke-linecap="round" stroke-linejoin="round" fill="none" stroke="#000000" d="M -1.893 0 C -1.893 -1.044 -1.044 -1.893 0 -1.893 "/>
<path transform="matrix(1,0,0,-1,45.056,12.370003)" stroke-width=".398" stroke-linecap="round" stroke-linejoin="round" fill="none" stroke="#000000" d="M 0 -1.893 C 1.044 -1.893 1.893 -1.044 1.893 0 "/>
<path transform="matrix(1,0,0,-1,45.056,12.370003)" stroke-width=".398" stroke-linecap="round" stroke-linejoin="round" fill="none" stroke="#000000" d="M 1.893 0 C 1.893 1.044 1.044 1.893 0 1.893 "/>
<path transform="matrix(1,0,0,-1,5.9780008,12.370003)" stroke-width=".398" stroke-linecap="round" stroke-linejoin="round" fill="none" stroke="#000000" d="M 39.078 -1.943 L 39.078 -17.817 "/>
<path transform="matrix(1,0,0,-1,5.9780008,12.370003)" stroke-width=".398" stroke-linecap="round" stroke-linejoin="round" fill="none" stroke="#000000" d="M 37.136 0 L 25.031 0 "/>
<text xml:space="preserve" transform="matrix(1 0 -0 1 .00000047683718 64.259)" font-size="9.9626" font-family="CMMI10" font-style="italic"><tspan y="-48.485" x="62.092">H</tspan></text>
<path transform="matrix(1,0,0,-1,5.9780008,12.370003)" stroke-width=".398" stroke-linecap="round" stroke-linejoin="round" fill="none" stroke="#000000" d="M 68.194 6.393 L 53.126 6.393 "/>
<path transform="matrix(1,0,0,-1,5.9780008,12.370003)" stroke-width=".398" stroke-linecap="round" stroke-linejoin="round" fill="none" stroke="#000000" d="M 53.126 6.393 L 53.126 -6.393 "/>
<path transform="matrix(1,0,0,-1,5.9780008,12.370003)" stroke-width=".398" stroke-linecap="round" stroke-linejoin="round" fill="none" stroke="#000000" d="M 53.126 -6.393 L 68.194 -6.393 "/>
<path transform="matrix(1,0,0,-1,5.9780008,12.370003)" stroke-width=".398" stroke-linecap="round" stroke-linejoin="round" fill="none" stroke="#000000" d="M 68.194 -6.393 L 68.194 6.393 "/>
<path transform="matrix(1,0,0,-1,5.9780008,12.370003)" stroke-width=".398" stroke-linecap="round" stroke-linejoin="round" fill="none" stroke="#000000" d="M 53.126 0 L 41.021 0 "/>
<path transform="matrix(1,0,0,-1,5.9780008,12.370003)" stroke-width=".398" stroke-linecap="round" stroke-linejoin="round" fill="none" stroke="#000000" d="M 78.157 0 L 68.194 0 "/>
<text xml:space="preserve" transform="matrix(1 0 -0 1 .00000047683718 64.259)" font-size="9.9626" font-family="CMMI10" font-style="italic"><tspan y="-28.726" x="18.929">H</tspan></text>
<path transform="matrix(1,0,0,-1,5.9780008,12.370003)" stroke-width=".398" stroke-linecap="round" stroke-linejoin="round" fill="none" stroke="#000000" d="M 25.031 -13.367 L 9.963 -13.367 "/>
<path transform="matrix(1,0,0,-1,5.9780008,12.370003)" stroke-width=".398" stroke-linecap="round" stroke-linejoin="round" fill="none" stroke="#000000" d="M 9.963 -13.367 L 9.963 -26.152 "/>
<path transform="matrix(1,0,0,-1,5.9780008,12.370003)" stroke-width=".398" stroke-linecap="round" stroke-linejoin="round" fill="none" stroke="#000000" d="M 9.963 -26.152 L 25.031 -26.152 "/>
<path transform="matrix(1,0,0,-1,5.9780008,12.370003)" stroke-width=".398" stroke-linecap="round" stroke-linejoin="round" fill="none" stroke="#000000" d="M 25.031 -26.152 L 25.031 -13.367 "/>
<path transform="matrix(1,0,0,-1,5.9780008,12.370003)" stroke-width=".398" stroke-linecap="round" stroke-linejoin="round" fill="none" stroke="#000000" d="M 9.963 -19.759 L 0 -19.759 "/>
<path transform="matrix(1,0,0,-1,45.056,32.129007)" stroke-width=".398" stroke-linecap="round" stroke-linejoin="round" fill="none" stroke="#000000" d="M 0 1.893 C -1.044 1.893 -1.893 1.044 -1.893 0 "/>
<path transform="matrix(1,0,0,-1,45.056,32.129007)" stroke-width=".398" stroke-linecap="round" stroke-linejoin="round" fill="none" stroke="#000000" d="M -1.893 0 C -1.893 -1.044 -1.044 -1.893 0 -1.893 "/>
<path transform="matrix(1,0,0,-1,45.056,32.129007)" stroke-width=".398" stroke-linecap="round" stroke-linejoin="round" fill="none" stroke="#000000" d="M 0 -1.893 C 1.044 -1.893 1.893 -1.044 1.893 0 "/>
<path transform="matrix(1,0,0,-1,45.056,32.129007)" stroke-width=".398" stroke-linecap="round" stroke-linejoin="round" fill="none" stroke="#000000" d="M 1.893 0 C 1.893 1.044 1.044 1.893 0 1.893 "/>
<path transform="matrix(1,0,0,-1,5.9780008,12.370005)" stroke-width=".398" stroke-linecap="round" stroke-linejoin="round" fill="none" stroke="#000000" d="M 39.078 -21.702 L 39.078 -35.434 "/>
<path transform="matrix(1,0,0,-1,5.9780008,12.370005)" stroke-width=".398" stroke-linecap="round" stroke-linejoin="round" fill="none" stroke="#000000" d="M 37.136 -19.759 L 25.031 -19.759 "/>
<text xml:space="preserve" transform="matrix(1 0 -0 1 .00000047683718 64.259)" font-size="9.9626" font-family="CMMI10" font-style="italic"><tspan y="-28.726" x="62.092">H</tspan></text>
<path transform="matrix(1,0,0,-1,5.9780008,12.370003)" stroke-width=".398" stroke-linecap="round" stroke-linejoin="round" fill="none" stroke="#000000" d="M 68.194 -13.367 L 53.126 -13.367 "/>
<path transform="matrix(1,0,0,-1,5.9780008,12.370003)" stroke-width=".398" stroke-linecap="round" stroke-linejoin="round" fill="none" stroke="#000000" d="M 53.126 -13.367 L 53.126 -26.152 "/>
<path transform="matrix(1,0,0,-1,5.9780008,12.370003)" stroke-width=".398" stroke-linecap="round" stroke-linejoin="round" fill="none" stroke="#000000" d="M 53.126 -26.152 L 68.194 -26.152 "/>
<path transform="matrix(1,0,0,-1,5.9780008,12.370003)" stroke-width=".398" stroke-linecap="round" stroke-linejoin="round" fill="none" stroke="#000000" d="M 68.194 -26.152 L 68.194 -13.367 "/>
<path transform="matrix(1,0,0,-1,5.9780008,12.370003)" stroke-width=".398" stroke-linecap="round" stroke-linejoin="round" fill="none" stroke="#000000" d="M 53.126 -19.759 L 41.021 -19.759 "/>
<path transform="matrix(1,0,0,-1,5.9780008,12.370003)" stroke-width=".398" stroke-linecap="round" stroke-linejoin="round" fill="none" stroke="#000000" d="M 78.157 -19.759 L 68.194 -19.759 "/>
<text xml:space="preserve" transform="matrix(1 0 -0 1 .00000047683718 64.259)" font-size="9.9626" font-family="CMMI10" font-style="italic"><tspan y="-8.966" x="19.718">Z</tspan></text>
<path transform="matrix(1,0,0,-1,5.9780008,12.370003)" stroke-width=".398" stroke-linecap="round" stroke-linejoin="round" fill="none" stroke="#000000" d="M 24.243 -33.126 L 10.751 -33.126 "/>
<path transform="matrix(1,0,0,-1,5.9780008,12.370003)" stroke-width=".398" stroke-linecap="round" stroke-linejoin="round" fill="none" stroke="#000000" d="M 10.751 -33.126 L 10.751 -45.911 "/>
<path transform="matrix(1,0,0,-1,5.9780008,12.370003)" stroke-width=".398" stroke-linecap="round" stroke-linejoin="round" fill="none" stroke="#000000" d="M 10.751 -45.911 L 24.243 -45.911 "/>
<path transform="matrix(1,0,0,-1,5.9780008,12.370003)" stroke-width=".398" stroke-linecap="round" stroke-linejoin="round" fill="none" stroke="#000000" d="M 24.243 -45.911 L 24.243 -33.126 "/>
<path transform="matrix(1,0,0,-1,5.9780008,12.370003)" stroke-width=".398" stroke-linecap="round" stroke-linejoin="round" fill="none" stroke="#000000" d="M 10.751 -39.519 L 0 -39.519 "/>
<path transform="matrix(1,0,0,-1,45.056,51.889005)" stroke-width=".398" stroke-linecap="round" stroke-linejoin="round" fill="none" stroke="#000000" d="M -3.885 0 L 3.885 0 "/>
<path transform="matrix(1,0,0,-1,45.056,51.889005)" stroke-width=".398" stroke-linecap="round" stroke-linejoin="round" fill="none" stroke="#000000" d="M 0 -3.885 L 0 3.885 "/>
<path transform="matrix(1,0,0,-1,45.056,51.889005)" stroke-width=".398" stroke-linecap="round" stroke-linejoin="round" fill="none" stroke="#000000" d="M 0 3.985 C -2.199 3.985 -3.985 2.199 -3.985 0 "/>
<path transform="matrix(1,0,0,-1,45.056,51.889005)" stroke-width=".398" stroke-linecap="round" stroke-linejoin="round" fill="none" stroke="#000000" d="M -3.985 0 C -3.985 -2.199 -2.199 -3.985 0 -3.985 "/>
<path transform="matrix(1,0,0,-1,45.056,51.889005)" stroke-width=".398" stroke-linecap="round" stroke-linejoin="round" fill="none" stroke="#000000" d="M 0 -3.985 C 2.199 -3.985 3.985 -2.199 3.985 0 "/>
<path transform="matrix(1,0,0,-1,45.056,51.889005)" stroke-width=".398" stroke-linecap="round" stroke-linejoin="round" fill="none" stroke="#000000" d="M 3.985 0 C 3.985 2.199 2.199 3.985 0 3.985 "/>
<path transform="matrix(1,0,0,-1,5.9780008,12.370003)" stroke-width=".398" stroke-linecap="round" stroke-linejoin="round" fill="none" stroke="#000000" d="M 34.994 -39.519 L 24.243 -39.519 "/>
<text xml:space="preserve" transform="matrix(1 0 -0 1 .00000047683718 64.259)" font-size="9.9626" font-family="CMMI10" font-style="italic"><tspan y="-8.966" x="62.881">Z</tspan></text>
<path transform="matrix(1,0,0,-1,5.9780008,12.370003)" stroke-width=".398" stroke-linecap="round" stroke-linejoin="round" fill="none" stroke="#000000" d="M 67.406 -33.126 L 53.914 -33.126 "/>
<path transform="matrix(1,0,0,-1,5.9780008,12.370003)" stroke-width=".398" stroke-linecap="round" stroke-linejoin="round" fill="none" stroke="#000000" d="M 53.914 -33.126 L 53.914 -45.911 "/>
<path transform="matrix(1,0,0,-1,5.9780008,12.370003)" stroke-width=".398" stroke-linecap="round" stroke-linejoin="round" fill="none" stroke="#000000" d="M 53.914 -45.911 L 67.406 -45.911 "/>
<path transform="matrix(1,0,0,-1,5.9780008,12.370003)" stroke-width=".398" stroke-linecap="round" stroke-linejoin="round" fill="none" stroke="#000000" d="M 67.406 -45.911 L 67.406 -33.126 "/>
<path transform="matrix(1,0,0,-1,5.9780008,12.370003)" stroke-width=".398" stroke-linecap="round" stroke-linejoin="round" fill="none" stroke="#000000" d="M 53.914 -39.519 L 43.163 -39.519 "/>
<path transform="matrix(1,0,0,-1,5.9780008,12.370003)" stroke-width=".398" stroke-linecap="round" stroke-linejoin="round" fill="none" stroke="#000000" d="M 78.157 -39.519 L 67.406 -39.519 "/>
</g>
</svg>
