<?xml version="1.0" encoding="UTF-8" standalone="no"?>
<!-- Created with Inkscape (http://www.inkscape.org/) -->

<svg
   xmlns:dc="http://purl.org/dc/elements/1.1/"
   xmlns:cc="http://creativecommons.org/ns#"
   xmlns:rdf="http://www.w3.org/1999/02/22-rdf-syntax-ns#"
   xmlns:svg="http://www.w3.org/2000/svg"
   xmlns="http://www.w3.org/2000/svg"
   xmlns:xlink="http://www.w3.org/1999/xlink"
   xmlns:sodipodi="http://sodipodi.sourceforge.net/DTD/sodipodi-0.dtd"
   xmlns:inkscape="http://www.inkscape.org/namespaces/inkscape"
   width="260.37518mm"
   height="202.18541mm"
   viewBox="0 0 922.58923 716.405"
   id="svg2"
   version="1.1"
   inkscape:version="0.92.3 (2405546, 2018-03-11)"
   sodipodi:docname="concepts.svg"
   inkscape:export-filename="/home/maria/Desktop/XanaduAI/pennylane/doc/_static/concepts.png"
   inkscape:export-xdpi="300"
   inkscape:export-ydpi="300">
  <sodipodi:namedview
     id="base"
     pagecolor="#ffffff"
     bordercolor="#666666"
     borderopacity="1.0"
     inkscape:pageopacity="0.0"
     inkscape:pageshadow="2"
     inkscape:zoom="1.4"
     inkscape:cx="278.9971"
     inkscape:cy="272.97905"
     inkscape:document-units="px"
     inkscape:current-layer="layer1"
     showgrid="false"
     inkscape:window-width="2866"
     inkscape:window-height="1889"
     inkscape:window-x="134"
     inkscape:window-y="55"
     inkscape:window-maximized="1"
     fit-margin-top="10"
     fit-margin-left="10"
     fit-margin-right="10"
     fit-margin-bottom="10" />
  <defs
     id="defs4">
    <marker
       inkscape:stockid="Arrow2Lend"
       orient="auto"
       refY="0"
       refX="0"
       id="marker36442"
       style="overflow:visible"
       inkscape:isstock="true">
      <path
         id="path36444"
         style="fill:#000000;fill-opacity:1;fill-rule:evenodd;stroke:#000000;stroke-width:0.625;stroke-linejoin:round;stroke-opacity:1"
         d="M 8.7185878,4.0337352 -2.2072895,0.01601326 8.7185884,-4.0017078 c -1.7454984,2.3720609 -1.7354408,5.6174519 -6e-7,8.035443 z"
         transform="matrix(-1.1,0,0,-1.1,-1.1,0)"
         inkscape:connector-curvature="0" />
    </marker>
    <marker
       inkscape:isstock="true"
       style="overflow:visible"
       id="marker35312"
       refX="0"
       refY="0"
       orient="auto"
       inkscape:stockid="Arrow2Lend"
       inkscape:collect="always">
      <path
         transform="matrix(-1.1,0,0,-1.1,-1.1,0)"
         d="M 8.7185878,4.0337352 -2.2072895,0.01601326 8.7185884,-4.0017078 c -1.7454984,2.3720609 -1.7354408,5.6174519 -6e-7,8.035443 z"
         style="fill:#000000;fill-opacity:1;fill-rule:evenodd;stroke:#000000;stroke-width:0.625;stroke-linejoin:round;stroke-opacity:1"
         id="path35314"
         inkscape:connector-curvature="0" />
    </marker>
    <marker
       inkscape:isstock="true"
       style="overflow:visible"
       id="marker34762"
       refX="0"
       refY="0"
       orient="auto"
       inkscape:stockid="Arrow2Lend">
      <path
         transform="matrix(-1.1,0,0,-1.1,-1.1,0)"
         d="M 8.7185878,4.0337352 -2.2072895,0.01601326 8.7185884,-4.0017078 c -1.7454984,2.3720609 -1.7354408,5.6174519 -6e-7,8.035443 z"
         style="fill:#000000;fill-opacity:1;fill-rule:evenodd;stroke:#000000;stroke-width:0.625;stroke-linejoin:round;stroke-opacity:1"
         id="path34764"
         inkscape:connector-curvature="0" />
    </marker>
    <marker
       inkscape:isstock="true"
       style="overflow:visible"
       id="marker34218"
       refX="0"
       refY="0"
       orient="auto"
       inkscape:stockid="Arrow2Lend">
      <path
         transform="matrix(-1.1,0,0,-1.1,-1.1,0)"
         d="M 8.7185878,4.0337352 -2.2072895,0.01601326 8.7185884,-4.0017078 c -1.7454984,2.3720609 -1.7354408,5.6174519 -6e-7,8.035443 z"
         style="fill:#000000;fill-opacity:1;fill-rule:evenodd;stroke:#000000;stroke-width:0.625;stroke-linejoin:round;stroke-opacity:1"
         id="path34220"
         inkscape:connector-curvature="0" />
    </marker>
    <marker
       inkscape:isstock="true"
       style="overflow:visible"
       id="marker33148"
       refX="0"
       refY="0"
       orient="auto"
       inkscape:stockid="Arrow2Lend">
      <path
         transform="matrix(-1.1,0,0,-1.1,-1.1,0)"
         d="M 8.7185878,4.0337352 -2.2072895,0.01601326 8.7185884,-4.0017078 c -1.7454984,2.3720609 -1.7354408,5.6174519 -6e-7,8.035443 z"
         style="fill:#000000;fill-opacity:1;fill-rule:evenodd;stroke:#000000;stroke-width:0.625;stroke-linejoin:round;stroke-opacity:1"
         id="path33150"
         inkscape:connector-curvature="0" />
    </marker>
    <marker
       inkscape:isstock="true"
       style="overflow:visible"
       id="marker32102"
       refX="0"
       refY="0"
       orient="auto"
       inkscape:stockid="Arrow2Lend">
      <path
         transform="matrix(-1.1,0,0,-1.1,-1.1,0)"
         d="M 8.7185878,4.0337352 -2.2072895,0.01601326 8.7185884,-4.0017078 c -1.7454984,2.3720609 -1.7354408,5.6174519 -6e-7,8.035443 z"
         style="fill:#000000;fill-opacity:1;fill-rule:evenodd;stroke:#000000;stroke-width:0.625;stroke-linejoin:round;stroke-opacity:1"
         id="path32104"
         inkscape:connector-curvature="0" />
    </marker>
    <marker
       inkscape:isstock="true"
       style="overflow:visible"
       id="marker30568"
       refX="0"
       refY="0"
       orient="auto"
       inkscape:stockid="Arrow2Lend">
      <path
         transform="matrix(-1.1,0,0,-1.1,-1.1,0)"
         d="M 8.7185878,4.0337352 -2.2072895,0.01601326 8.7185884,-4.0017078 c -1.7454984,2.3720609 -1.7354408,5.6174519 -6e-7,8.035443 z"
         style="fill:#000000;fill-opacity:1;fill-rule:evenodd;stroke:#000000;stroke-width:0.625;stroke-linejoin:round;stroke-opacity:1"
         id="path30570"
         inkscape:connector-curvature="0" />
    </marker>
    <marker
       inkscape:isstock="true"
       style="overflow:visible"
       id="marker29572"
       refX="0"
       refY="0"
       orient="auto"
       inkscape:stockid="Arrow2Lend">
      <path
         transform="matrix(-1.1,0,0,-1.1,-1.1,0)"
         d="M 8.7185878,4.0337352 -2.2072895,0.01601326 8.7185884,-4.0017078 c -1.7454984,2.3720609 -1.7354408,5.6174519 -6e-7,8.035443 z"
         style="fill:#000000;fill-opacity:1;fill-rule:evenodd;stroke:#000000;stroke-width:0.625;stroke-linejoin:round;stroke-opacity:1"
         id="path29574"
         inkscape:connector-curvature="0" />
    </marker>
    <marker
       inkscape:stockid="Arrow2Lend"
       orient="auto"
       refY="0"
       refX="0"
       id="Arrow2Lend"
       style="overflow:visible"
       inkscape:isstock="true"
       inkscape:collect="always">
      <path
         id="path4421"
         style="fill:#000000;fill-opacity:1;fill-rule:evenodd;stroke:#000000;stroke-width:0.625;stroke-linejoin:round;stroke-opacity:1"
         d="M 8.7185878,4.0337352 -2.2072895,0.01601326 8.7185884,-4.0017078 c -1.7454984,2.3720609 -1.7354408,5.6174519 -6e-7,8.035443 z"
         transform="matrix(-1.1,0,0,-1.1,-1.1,0)"
         inkscape:connector-curvature="0" />
    </marker>
    <marker
       inkscape:isstock="true"
       style="overflow:visible"
       id="marker33148-3"
       refX="0"
       refY="0"
       orient="auto"
       inkscape:stockid="Arrow2Lend">
      <path
         inkscape:connector-curvature="0"
         transform="matrix(-1.1,0,0,-1.1,-1.1,0)"
         d="M 8.7185878,4.0337352 -2.2072895,0.01601326 8.7185884,-4.0017078 c -1.7454984,2.3720609 -1.7354408,5.6174519 -6e-7,8.035443 z"
         style="fill:#000000;fill-opacity:1;fill-rule:evenodd;stroke:#000000;stroke-width:0.625;stroke-linejoin:round;stroke-opacity:1"
         id="path33150-6" />
    </marker>
    <linearGradient
       id="linearGradient13294"
       inkscape:collect="always">
      <stop
         id="stop13290"
         offset="0"
         style="stop-color:#ffffff;stop-opacity:1" />
      <stop
         style="stop-color:#ffffff;stop-opacity:0.99109793"
         offset="0.50000006"
         id="stop13298" />
      <stop
         id="stop13292"
         offset="1"
         style="stop-color:#ffffff;stop-opacity:0" />
    </linearGradient>
    <radialGradient
       inkscape:collect="always"
       xlink:href="#linearGradient13294"
       id="radialGradient12779"
       gradientUnits="userSpaceOnUse"
       gradientTransform="matrix(-11.884291,0.04455588,-0.00448118,-1.1934972,2765.4111,762.33117)"
       cx="190.37727"
       cy="52.61116"
       fx="190.37727"
       fy="52.61116"
       r="49.963364" />
    <marker
       inkscape:isstock="true"
       style="overflow:visible"
       id="marker33148-3-3"
       refX="0"
       refY="0"
       orient="auto"
       inkscape:stockid="Arrow2Lend">
      <path
         inkscape:connector-curvature="0"
         transform="matrix(-1.1,0,0,-1.1,-1.1,0)"
         d="M 8.7185878,4.0337352 -2.2072895,0.01601326 8.7185884,-4.0017078 c -1.7454984,2.3720609 -1.7354408,5.6174519 -6e-7,8.035443 z"
         style="fill:#000000;fill-opacity:1;fill-rule:evenodd;stroke:#000000;stroke-width:0.625;stroke-linejoin:round;stroke-opacity:1"
         id="path33150-6-6" />
    </marker>
  </defs>
  <metadata
     id="metadata7">
    <rdf:RDF>
      <cc:Work
         rdf:about="">
        <dc:format>image/svg+xml</dc:format>
        <dc:type
           rdf:resource="http://purl.org/dc/dcmitype/StillImage" />
        <dc:title />
      </cc:Work>
    </rdf:RDF>
  </metadata>
  <g
     inkscape:label="Layer 1"
     inkscape:groupmode="layer"
     id="layer1"
     transform="translate(112.95421,-63.61674)">
    <rect
       style="fill:#ffffff;fill-opacity:1;fill-rule:nonzero;stroke:none;stroke-width:1.57598627;stroke-linecap:round;stroke-linejoin:round;stroke-miterlimit:4;stroke-dasharray:6.30394458, 6.30394458;stroke-dashoffset:0;stroke-opacity:1"
       id="rect1761"
       width="851.72308"
       height="645.53888"
       x="-77.521141"
       y="99.049812"
       inkscape:export-xdpi="300"
       inkscape:export-ydpi="300" />
    <rect
       style="opacity:1;fill:#f4d1b4;fill-opacity:1;stroke:#000000;stroke-width:1.93781245;stroke-linejoin:round;stroke-miterlimit:4;stroke-dasharray:none;stroke-dashoffset:0;stroke-opacity:0.66666667"
       id="rect3336-3-9"
       width="69.079575"
       height="59.031643"
       x="244.74594"
       y="399.63211"
       inkscape:export-xdpi="300"
       inkscape:export-ydpi="300" />
    <rect
       style="opacity:1;fill:#f4d1b4;fill-opacity:1;stroke:#000000;stroke-width:2.94219208;stroke-linejoin:round;stroke-miterlimit:4;stroke-dasharray:none;stroke-dashoffset:0;stroke-opacity:0.66666667"
       id="rect3336-3-93"
       width="113.70609"
       height="82.674088"
       x="8.9029446"
       y="317.73163"
       inkscape:export-xdpi="300"
       inkscape:export-ydpi="300" />
    <rect
       style="opacity:1;fill:#f4d1b4;fill-opacity:1;stroke:#000000;stroke-width:1.93781245;stroke-linejoin:round;stroke-miterlimit:4;stroke-dasharray:none;stroke-dashoffset:0;stroke-opacity:0.66666667"
       id="rect3336-3-06"
       width="69.079575"
       height="59.031643"
       x="484.22791"
       y="307.13211"
       inkscape:export-xdpi="300"
       inkscape:export-ydpi="300" />
    <rect
       style="opacity:1;fill:#f4d1b4;fill-opacity:1;stroke:#000000;stroke-width:1.93781245;stroke-linejoin:round;stroke-miterlimit:4;stroke-dasharray:none;stroke-dashoffset:0;stroke-opacity:0.66666667"
       id="rect3336-3-06-2"
       width="69.079575"
       height="59.031643"
       x="606.37091"
       y="354.70352"
       inkscape:export-xdpi="300"
       inkscape:export-ydpi="300" />
    <path
       style="fill:none;fill-rule:evenodd;stroke:#000000;stroke-width:1px;stroke-linecap:butt;stroke-linejoin:miter;stroke-opacity:1;marker-end:url(#marker29572)"
       d="m 397.76797,294.14789 86.45994,30.36826"
       id="path4374"
       inkscape:connector-type="polyline"
       inkscape:connector-curvature="0"
       inkscape:connection-end="#rect3336-3-06"
       sodipodi:nodetypes="cc"
       inkscape:export-xdpi="300"
       inkscape:export-ydpi="300" />
    <path
       style="fill:none;fill-rule:evenodd;stroke:#000000;stroke-width:1px;stroke-linecap:butt;stroke-linejoin:miter;stroke-opacity:1;marker-end:url(#Arrow2Lend)"
       d="m 553.30748,350.10025 53.06343,20.66678"
       id="path4388"
       inkscape:connector-type="polyline"
       inkscape:connector-curvature="0"
       inkscape:connection-start="#rect3336-3-06"
       inkscape:connection-end="#rect3336-3-06-2"
       inkscape:export-xdpi="300"
       inkscape:export-ydpi="300" />
    <path
       style="fill:none;fill-rule:evenodd;stroke:#000000;stroke-width:1px;stroke-linecap:butt;stroke-linejoin:miter;stroke-opacity:1;marker-end:url(#Arrow2Lend)"
       d="M 492.5177,429.5051 606.37091,394.76001"
       id="path20952"
       inkscape:connector-type="polyline"
       inkscape:connector-curvature="0"
       inkscape:connection-end="#rect3336-3-06-2"
       inkscape:export-xdpi="300"
       inkscape:export-ydpi="300" />
    <text
       xml:space="preserve"
       style="font-style:normal;font-variant:normal;font-weight:normal;font-stretch:normal;line-height:0%;font-family:'Bitstream Charter';-inkscape-font-specification:'Bitstream Charter, Normal';text-align:center;letter-spacing:0px;word-spacing:0px;writing-mode:lr-tb;text-anchor:middle;fill:#000000;fill-opacity:1;stroke:none;stroke-width:1px;stroke-linecap:butt;stroke-linejoin:miter;stroke-opacity:1"
       x="65.078842"
       y="354.57739"
       id="text20998"
       inkscape:export-xdpi="300"
       inkscape:export-ydpi="300"><tspan
         sodipodi:role="line"
         id="tspan21008"
         x="65.078842"
         y="354.57739"
         style="font-style:normal;font-variant:normal;font-weight:normal;font-stretch:normal;font-size:25px;line-height:125%;font-family:'Bitstream Charter';-inkscape-font-specification:'Bitstream Charter, Normal';text-align:center;writing-mode:lr-tb;text-anchor:middle">classical</tspan><tspan
         sodipodi:role="line"
         id="tspan21010"
         x="65.078842"
         y="385.82739"
         style="font-style:normal;font-variant:normal;font-weight:normal;font-stretch:normal;font-size:25px;line-height:125%;font-family:'Bitstream Charter';-inkscape-font-specification:'Bitstream Charter, Normal';text-align:center;writing-mode:lr-tb;text-anchor:middle">node</tspan></text>
    <rect
       style="opacity:1;fill:#8edbce;fill-opacity:1;stroke:#000000;stroke-width:1.875;stroke-linejoin:round;stroke-miterlimit:4;stroke-dasharray:none;stroke-dashoffset:0;stroke-opacity:0.66666667"
       id="rect3336-3-2-5"
       width="69.079575"
       height="59.031643"
       x="49.951508"
       y="212.99446"
       ry="14.085154"
       inkscape:export-xdpi="300"
       inkscape:export-ydpi="300" />
    <rect
       style="opacity:1;fill:#8edbce;fill-opacity:1;stroke:#000000;stroke-width:1.875;stroke-linejoin:round;stroke-miterlimit:4;stroke-dasharray:none;stroke-dashoffset:0;stroke-opacity:0.66666667"
       id="rect3336-3-2-5-7"
       width="69.079575"
       height="59.031643"
       x="154.65665"
       y="265.60608"
       ry="13.13815"
       inkscape:export-xdpi="300"
       inkscape:export-ydpi="300" />
    <rect
       style="opacity:1;fill:#8edbce;fill-opacity:1;stroke:#000000;stroke-width:1.875;stroke-linejoin:round;stroke-miterlimit:4;stroke-dasharray:none;stroke-dashoffset:0;stroke-opacity:0.66666667"
       id="rect3336-3-2-5-4"
       width="69.079575"
       height="59.031643"
       x="154.65665"
       y="399.63211"
       ry="15.505695"
       inkscape:export-xdpi="300"
       inkscape:export-ydpi="300" />
    <rect
       style="opacity:1;fill:#8edbce;fill-opacity:1;stroke:#000000;stroke-width:1.875;stroke-linejoin:round;stroke-miterlimit:4;stroke-dasharray:none;stroke-dashoffset:0;stroke-opacity:0.66666667"
       id="rect3336-3-2-5-9"
       width="69.079575"
       height="59.031643"
       x="342.24588"
       y="265.60608"
       ry="13.13815"
       inkscape:export-xdpi="300"
       inkscape:export-ydpi="300" />
    <path
       style="display:inline;fill:none;fill-rule:evenodd;stroke:#000000;stroke-width:1px;stroke-linecap:butt;stroke-linejoin:miter;stroke-opacity:1;marker-end:url(#marker35312)"
       d="m 120.72043,244.057 36.33605,27.09704"
       id="path23476"
       inkscape:connector-type="polyline"
       inkscape:connector-curvature="0"
       inkscape:connection-end="#rect3336-3-2-5-7"
       sodipodi:nodetypes="cc"
       inkscape:export-xdpi="300"
       inkscape:export-ydpi="300" />
    <path
       style="fill:none;fill-rule:evenodd;stroke:#000000;stroke-width:1px;stroke-linecap:butt;stroke-linejoin:miter;stroke-opacity:1;marker-end:url(#marker34762)"
       d="m 122.60904,329.61667 32.12855,-16.6438"
       id="path23478"
       inkscape:connector-type="polyline"
       inkscape:connector-curvature="0"
       inkscape:connection-start="#rect3336-3-93"
       inkscape:connection-end="#rect3336-3-2-5-7"
       sodipodi:nodetypes="cc"
       inkscape:export-xdpi="300"
       inkscape:export-ydpi="300" />
    <path
       style="fill:none;fill-rule:evenodd;stroke:#000000;stroke-width:1px;stroke-linecap:butt;stroke-linejoin:miter;stroke-opacity:1;marker-end:url(#marker34218)"
       d="m 122.60904,391.34512 32.90386,18.68009"
       id="path23480"
       inkscape:connector-type="polyline"
       inkscape:connector-curvature="0"
       inkscape:connection-start="#rect3336-3-93"
       inkscape:connection-end="#rect3336-3-2-5-4"
       sodipodi:nodetypes="cc"
       inkscape:export-xdpi="300"
       inkscape:export-ydpi="300" />
    <path
       style="fill:none;fill-rule:evenodd;stroke:#000000;stroke-width:1px;stroke-linecap:butt;stroke-linejoin:miter;stroke-opacity:1;marker-end:url(#marker33148)"
       d="m 223.73622,429.14793 h 21.00972"
       id="path23484"
       inkscape:connector-type="polyline"
       inkscape:connector-curvature="0"
       inkscape:connection-start="#rect3336-3-2-5-4"
       inkscape:connection-end="#rect3336-3-9"
       inkscape:export-xdpi="300"
       inkscape:export-ydpi="300" />
    <path
       style="fill:none;fill-rule:evenodd;stroke:#000000;stroke-width:1px;stroke-linecap:butt;stroke-linejoin:miter;stroke-opacity:1;marker-end:url(#marker30568)"
       d="m 314.06255,431.21478 75.20404,-0.044"
       id="path23492"
       inkscape:connector-type="polyline"
       inkscape:connector-curvature="0"
       sodipodi:nodetypes="cc"
       inkscape:export-xdpi="300"
       inkscape:export-ydpi="300" />
    <path
       style="fill:none;fill-rule:evenodd;stroke:#000000;stroke-width:1px;stroke-linecap:butt;stroke-linejoin:miter;stroke-opacity:1;marker-end:url(#marker32102)"
       d="m 315.61722,293.97388 26.62866,0.22249"
       id="path23498"
       inkscape:connector-type="polyline"
       inkscape:connector-curvature="0"
       inkscape:connection-start="#rect3336-3-1"
       inkscape:connection-end="#rect3336-3-2-5-9"
       sodipodi:nodetypes="cc"
       inkscape:export-xdpi="300"
       inkscape:export-ydpi="300" />
    <path
       style="fill:none;fill-rule:evenodd;stroke:#000000;stroke-width:1px;stroke-linecap:butt;stroke-linejoin:miter;stroke-opacity:1;marker-end:url(#marker36442)"
       d="m 300.75761,399.63211 54.55631,-74.99457"
       id="path35870"
       inkscape:connector-type="polyline"
       inkscape:connector-curvature="0"
       inkscape:connection-start="#rect3336-3-9"
       inkscape:connection-end="#rect3336-3-2-5-9"
       sodipodi:nodetypes="cc"
       inkscape:export-xdpi="300"
       inkscape:export-ydpi="300" />
    <rect
       style="opacity:1;fill:#f4d1b4;fill-opacity:1;stroke:#000000;stroke-width:1.93781245;stroke-linejoin:round;stroke-miterlimit:4;stroke-dasharray:none;stroke-dashoffset:0;stroke-opacity:0.66666667"
       id="rect3336-3-1"
       width="69.079575"
       height="59.031643"
       x="244.74594"
       y="265.60608"
       inkscape:export-xdpi="300"
       inkscape:export-ydpi="300" />
    <path
       style="fill:none;fill-rule:evenodd;stroke:#000000;stroke-width:1px;stroke-linecap:butt;stroke-linejoin:miter;stroke-opacity:1;marker-end:url(#marker33148-3)"
       d="m 223.67843,293.79306 h 19.69661"
       id="path23484-7"
       inkscape:connector-type="polyline"
       inkscape:connector-curvature="0"
       inkscape:export-xdpi="300"
       inkscape:export-ydpi="300" />
    <rect
       style="opacity:1;fill:#8edbce;fill-opacity:1;stroke:#000000;stroke-width:1.98221731;stroke-linejoin:round;stroke-miterlimit:4;stroke-dasharray:none;stroke-dashoffset:0;stroke-opacity:0.66666667"
       id="rect3336-3-2-5-3"
       width="124.17731"
       height="83.473557"
       x="391.99548"
       y="390.41342"
       ry="18.831593"
       inkscape:export-xdpi="300"
       inkscape:export-ydpi="300" />
    <flowRoot
       transform="matrix(0.71468261,0,0,0.71468261,38.857019,189.20473)"
       style="font-style:normal;font-weight:normal;line-height:0.01%;font-family:sans-serif;text-align:center;letter-spacing:0px;word-spacing:0px;text-anchor:middle;fill:#4b4bab;fill-opacity:1;stroke:none;stroke-width:1px;stroke-linecap:butt;stroke-linejoin:miter;stroke-opacity:1"
       id="flowRoot3102-4"
       xml:space="preserve"
       inkscape:export-xdpi="300"
       inkscape:export-ydpi="300"><flowRegion
         style="text-align:center;text-anchor:middle;fill:#4b4bab;fill-opacity:1"
         id="flowRegion3104-7"><rect
           style="text-align:center;text-anchor:middle;fill:#4b4bab;fill-opacity:1"
           y="538.94824"
           x="142.85715"
           height="110.20602"
           width="229.46599"
           id="rect3106-9" /></flowRegion><flowPara
         style="font-style:normal;font-variant:normal;font-weight:500;font-stretch:normal;font-size:40px;line-height:1.25;font-family:aakar;-inkscape-font-specification:'aakar, Medium';font-variant-ligatures:normal;font-variant-caps:normal;font-variant-numeric:normal;font-feature-settings:normal;text-align:center;writing-mode:lr-tb;text-anchor:middle;fill:#4b4bab;fill-opacity:1"
         id="flowPara3108-3">quantum </flowPara><flowPara
         id="flowPara11803"
         style="font-style:normal;font-variant:normal;font-weight:500;font-stretch:normal;font-size:40px;line-height:1.25;font-family:aakar;-inkscape-font-specification:'aakar, Medium';font-variant-ligatures:normal;font-variant-caps:normal;font-variant-numeric:normal;font-feature-settings:normal;text-align:center;writing-mode:lr-tb;text-anchor:middle;fill:#4b4bab;fill-opacity:1">device</flowPara></flowRoot>    <g
       transform="translate(133.25892,239.06249)"
       id="g10921"
       inkscape:export-xdpi="300"
       inkscape:export-ydpi="300">
      <g
         style="font-style:normal;font-variant:normal;font-weight:normal;font-stretch:normal;letter-spacing:normal;word-spacing:normal;text-anchor:start;fill:none;fill-opacity:1;fill-rule:evenodd;stroke:#000000;stroke-linecap:butt;stroke-linejoin:miter;stroke-miterlimit:10.43299961;stroke-dasharray:none;stroke-dashoffset:0;stroke-opacity:1"
         id="g10919"
         transform="matrix(0.73399187,0,0,-0.73399187,-128.44858,517.51429)"
         xml:space="preserve"
         stroke-miterlimit="10.433"
         font-style="normal"
         font-variant="normal"
         font-weight="normal"
         font-stretch="normal"
         font-size-adjust="none"
         letter-spacing="normal"
         word-spacing="normal"><path
           style="fill:#000000;stroke-width:0"
           inkscape:connector-curvature="0"
           d="m 472.16,421.25 0.03,0.13 0.04,0.15 0.04,0.16 0.04,0.18 0.06,0.19 0.06,0.21 0.06,0.22 0.07,0.22 0.08,0.23 0.09,0.24 0.1,0.25 0.1,0.24 0.11,0.25 0.12,0.25 0.13,0.25 0.14,0.25 0.15,0.24 0.15,0.24 0.17,0.23 0.18,0.22 0.18,0.22 0.2,0.2 0.21,0.19 0.22,0.18 0.23,0.16 0.25,0.14 0.12,0.07 0.13,0.06 0.14,0.05 0.13,0.05 0.14,0.05 0.14,0.04 0.15,0.03 0.15,0.03 0.15,0.02 0.16,0.02 0.16,0.01 h 0.16 c 0.25,0 1.44,0 2.48,-0.64 -1.39,-0.25 -2.39,-1.5 -2.39,-2.69 0,-0.79 0.55,-1.75 1.89,-1.75 1.1,0 2.69,0.89 2.69,2.89 0,2.6 -2.94,3.28 -4.63,3.28 -2.89,0 -4.64,-2.64 -5.23,-3.78 -1.25,3.28 -3.94,3.78 -5.37,3.78 -5.19,0 -8.04,-6.42 -8.04,-7.67 0,-0.5 0.5,-0.5 0.61,-0.5 0.39,0 0.55,0.11 0.64,0.55 1.69,5.28 4.99,6.53 6.68,6.53 0.95,0 2.68,-0.44 2.68,-3.33 0,-1.54 -0.84,-4.89 -2.68,-11.86 -0.8,-3.09 -2.54,-5.18 -4.74,-5.18 -0.3,0 -1.44,0 -2.48,0.65 1.25,0.24 2.34,1.28 2.34,2.69 0,1.34 -1.09,1.73 -1.84,1.73 -1.5,0 -2.75,-1.29 -2.75,-2.89 0,-2.28 2.5,-3.28 4.68,-3.28 3.3,0 5.08,3.49 5.24,3.78 0.59,-1.84 2.39,-3.78 5.37,-3.78 5.14,0 7.99,6.42 7.99,7.67 0,0.5 -0.45,0.5 -0.61,0.5 -0.44,0 -0.55,-0.2 -0.64,-0.54 -1.64,-5.33 -5.03,-6.53 -6.63,-6.53 -1.95,0 -2.75,1.59 -2.75,3.29 0,1.1 0.3,2.19 0.86,4.38 z"
           id="path10917" /></g>    </g>
    <path
       sodipodi:nodetypes="cc"
       inkscape:connector-curvature="0"
       id="path11369"
       d="m 454.5982,474.42548 v 62.54464"
       style="fill:none;fill-rule:evenodd;stroke:#000000;stroke-width:1.78125;stroke-linecap:butt;stroke-linejoin:miter;stroke-miterlimit:4;stroke-dasharray:10.68750024, 1.78125004;stroke-dashoffset:0;stroke-opacity:1"
       inkscape:export-xdpi="300"
       inkscape:export-ydpi="300" />
    <g
       id="g12777"
       transform="translate(-40.446429,-84.642855)"
       inkscape:export-xdpi="300"
       inkscape:export-ydpi="300">
      <rect
         style="fill:#d7d7f4;fill-opacity:1;fill-rule:nonzero;stroke:#000000;stroke-width:1.52625;stroke-linecap:round;stroke-linejoin:round;stroke-miterlimit:4;stroke-dasharray:6.10499983, 6.10499983;stroke-dashoffset:0;stroke-opacity:1"
         id="rect3100-7"
         width="358.99438"
         height="145.78545"
         x="330.39871"
         y="621.16284"
         ry="36.938072" />
      <rect
         ry="33.14563"
         y="622.85199"
         x="332.32935"
         height="140.09738"
         width="354.07108"
         id="rect13251"
         style="fill:url(#radialGradient12779);fill-opacity:1;fill-rule:nonzero;stroke:none;stroke-width:0.18749999;stroke-linecap:round;stroke-linejoin:round;stroke-miterlimit:8.28866673;stroke-dasharray:none;stroke-dashoffset:0;stroke-opacity:1" />
      <path
         style="fill:none;fill-rule:evenodd;stroke:#000000;stroke-width:0.93749994px;stroke-linecap:butt;stroke-linejoin:miter;stroke-opacity:1"
         d="M 422.59073,689.64801 H 613.88837"
         id="path9973"
         inkscape:connector-curvature="0" />
      <path
         style="fill:none;fill-rule:evenodd;stroke:#000000;stroke-width:0.93749994px;stroke-linecap:butt;stroke-linejoin:miter;stroke-opacity:1"
         d="M 424.01125,727.94512 H 615.30889"
         id="path9973-6"
         inkscape:connector-curvature="0" />
      <path
         style="font-style:normal;font-variant:normal;font-weight:normal;font-stretch:normal;letter-spacing:normal;word-spacing:normal;text-anchor:start;fill:#000000;fill-opacity:1;fill-rule:evenodd;stroke:#000000;stroke-width:0;stroke-linecap:butt;stroke-linejoin:miter;stroke-miterlimit:10.43299961;stroke-dasharray:none;stroke-dashoffset:0;stroke-opacity:1"
         inkscape:connector-curvature="0"
         d="m 384.83595,679.14111 v -0.0794 -0.0844 l -0.005,-0.0794 v -0.0397 -0.0397 l -0.005,-0.0397 -0.005,-0.0397 -0.005,-0.0347 -0.005,-0.0347 -0.0104,-0.0347 -0.005,-0.0347 -0.0104,-0.0347 -0.0104,-0.0298 -0.0156,-0.0298 -0.0156,-0.0298 -0.0156,-0.0298 -0.0156,-0.0248 -0.0208,-0.0248 -0.0208,-0.0248 -0.026,-0.0199 -0.026,-0.0199 -0.0156,-0.005 -0.0156,-0.01 -0.0156,-0.01 -0.0156,-0.005 -0.0156,-0.005 -0.0156,-0.01 -0.0156,-0.005 -0.0208,-0.005 -0.0208,-0.005 -0.0156,-0.005 h -0.0208 l -0.0208,-0.005 h -0.0208 l -0.026,-0.005 h -0.0208 -0.026 c -0.52097,0 -0.52097,0.44174 -0.52097,0.88347 v 22.9505 c 0,0.4467 0,0.88844 0.52097,0.88844 0.52098,0 0.52098,-0.44174 0.52098,-0.88844 z"
         id="path10270" />
      <path
         style="font-style:normal;font-variant:normal;font-weight:normal;font-stretch:normal;letter-spacing:normal;word-spacing:normal;text-anchor:start;fill:#000000;fill-opacity:1;fill-rule:evenodd;stroke:#000000;stroke-width:0;stroke-linecap:butt;stroke-linejoin:miter;stroke-miterlimit:10.43299961;stroke-dasharray:none;stroke-dashoffset:0;stroke-opacity:1"
         inkscape:connector-curvature="0"
         d="m 399.83999,688.88912 -0.005,-0.36729 -0.005,-0.37225 -0.0104,-0.37225 -0.0156,-0.36729 -0.0208,-0.37225 -0.0313,-0.36729 -0.0417,-0.36728 -0.0521,-0.36233 -0.0573,-0.36232 -0.0729,-0.36233 -0.0833,-0.35736 -0.099,-0.35736 -0.11461,-0.35736 -0.12503,-0.34743 -0.14588,-0.34744 -0.0781,-0.17371 -0.0834,-0.16876 c -1.18782,-2.3824 -3.32381,-2.77947 -4.41265,-2.77947 -1.5525,0 -3.45405,0.64524 -4.51684,2.94823 -0.83356,1.70739 -0.9638,3.63813 -0.9638,5.61354 0,1.85629 0.10941,4.07987 1.17219,5.95601 1.11489,2.00023 3.01644,2.49656 4.28241,2.49656 v -0.541 c -1.00548,0 -2.54757,-0.62042 -3.01123,-2.9929 -0.28654,-1.47908 -0.28654,-3.75229 -0.28654,-5.22144 0,-1.57834 0,-3.20631 0.2136,-4.54145 0.48972,-2.94823 2.43295,-3.16662 3.08417,-3.16662 0.85439,0 2.57361,0.44174 3.06332,2.89363 0.26049,1.37981 0.26049,3.26588 0.26049,4.81444 0,1.86126 0,3.53887 -0.28654,5.12217 -0.39073,2.34766 -1.87029,3.09217 -3.03727,3.09217 v 0 0.541 c 1.40142,0 3.3707,-0.51619 4.51684,-2.86881 0.83356,-1.70243 0.9638,-3.6282 0.9638,-5.58376 z"
         id="path10272" />
      <path
         style="font-style:normal;font-variant:normal;font-weight:normal;font-stretch:normal;letter-spacing:normal;word-spacing:normal;text-anchor:start;fill:#000000;fill-opacity:1;fill-rule:evenodd;stroke:#000000;stroke-width:0;stroke-linecap:butt;stroke-linejoin:miter;stroke-miterlimit:10.43299961;stroke-dasharray:none;stroke-dashoffset:0;stroke-opacity:1"
         inkscape:connector-curvature="0"
         d="m 407.98281,691.03825 0.005,-0.0149 0.005,-0.01 0.005,-0.0149 0.005,-0.01 0.005,-0.0149 0.005,-0.01 0.005,-0.0149 0.005,-0.01 0.005,-0.01 0.005,-0.01 0.005,-0.01 v -0.0149 l 0.0104,-0.0149 0.005,-0.0199 0.005,-0.0199 0.0104,-0.0149 0.005,-0.0149 0.005,-0.0149 v -0.0149 l 0.005,-0.01 0.005,-0.0149 0.005,-0.01 v -0.01 l 0.005,-0.01 v -0.01 -0.01 l 0.005,-0.01 v -0.005 -0.01 -0.005 -0.01 l 0.005,-0.005 v -0.0149 -0.0149 -0.01 c 0,-0.0794 0,-0.12408 -0.13024,-0.42188 l -4.54289,-11.37598 c -0.15629,-0.41692 -0.31259,-0.56582 -0.59391,-0.56582 -0.28654,0 -0.52098,0.21839 -0.52098,0.49137 0,0.0744 0,0.12408 0.13025,0.3921 l 4.60019,11.48021 -4.60019,11.42066 c -0.13025,0.27298 -0.13025,0.31765 -0.13025,0.44173 0,0.27299 0.23444,0.49634 0.52098,0.49634 0.33863,0 0.43762,-0.24817 0.54181,-0.49634 z"
         id="path10274" />
      <path
         style="font-style:normal;font-variant:normal;font-weight:normal;font-stretch:normal;letter-spacing:normal;word-spacing:normal;text-anchor:start;fill:#000000;fill-opacity:1;fill-rule:evenodd;stroke:#000000;stroke-width:0;stroke-linecap:butt;stroke-linejoin:miter;stroke-miterlimit:10.43299961;stroke-dasharray:none;stroke-dashoffset:0;stroke-opacity:1"
         inkscape:connector-curvature="0"
         d="m 385.43016,716.50545 v -0.0794 -0.0844 l -0.005,-0.0794 v -0.0397 -0.0397 l -0.005,-0.0397 -0.005,-0.0397 -0.005,-0.0347 -0.005,-0.0347 -0.0104,-0.0348 -0.005,-0.0347 -0.0104,-0.0347 -0.0104,-0.0298 -0.0156,-0.0298 -0.0156,-0.0298 -0.0156,-0.0298 -0.0156,-0.0248 -0.0208,-0.0248 -0.0208,-0.0248 -0.026,-0.0199 -0.026,-0.0199 -0.0156,-0.005 -0.0156,-0.01 -0.0156,-0.01 -0.0156,-0.005 -0.0156,-0.005 -0.0156,-0.01 -0.0156,-0.005 -0.0208,-0.005 -0.0208,-0.005 -0.0156,-0.005 h -0.0208 l -0.0208,-0.005 h -0.0208 l -0.026,-0.005 h -0.0208 -0.026 c -0.52097,0 -0.52097,0.44174 -0.52097,0.88347 v 22.9505 c 0,0.4467 0,0.88844 0.52097,0.88844 0.52098,0 0.52098,-0.44174 0.52098,-0.88844 z"
         id="path10270-1" />
      <path
         style="font-style:normal;font-variant:normal;font-weight:normal;font-stretch:normal;letter-spacing:normal;word-spacing:normal;text-anchor:start;fill:#000000;fill-opacity:1;fill-rule:evenodd;stroke:#000000;stroke-width:0;stroke-linecap:butt;stroke-linejoin:miter;stroke-miterlimit:10.43299961;stroke-dasharray:none;stroke-dashoffset:0;stroke-opacity:1"
         inkscape:connector-curvature="0"
         d="m 400.4342,726.25346 -0.005,-0.36729 -0.005,-0.37225 -0.0104,-0.37225 -0.0156,-0.36729 -0.0208,-0.37225 -0.0313,-0.36729 -0.0417,-0.36728 -0.0521,-0.36233 -0.0573,-0.36232 -0.0729,-0.36233 -0.0833,-0.35736 -0.099,-0.35736 -0.11461,-0.35736 -0.12503,-0.34743 -0.14588,-0.34744 -0.0781,-0.17371 -0.0834,-0.16876 c -1.18782,-2.3824 -3.32381,-2.77947 -4.41265,-2.77947 -1.5525,0 -3.45405,0.64524 -4.51684,2.94823 -0.83356,1.70739 -0.9638,3.63813 -0.9638,5.61354 0,1.85629 0.10941,4.07987 1.17219,5.95601 1.11489,2.00023 3.01644,2.49656 4.28241,2.49656 v -0.541 c -1.00548,0 -2.54757,-0.62042 -3.01123,-2.9929 -0.28654,-1.47908 -0.28654,-3.75229 -0.28654,-5.22144 0,-1.57834 0,-3.20631 0.2136,-4.54145 0.48972,-2.94823 2.43295,-3.16662 3.08417,-3.16662 0.85439,0 2.57361,0.44174 3.06332,2.89363 0.26049,1.37981 0.26049,3.26588 0.26049,4.81444 0,1.86126 0,3.53887 -0.28654,5.12217 -0.39073,2.34766 -1.87029,3.09217 -3.03727,3.09217 v 0 0.541 c 1.40142,0 3.3707,-0.51619 4.51684,-2.86881 0.83356,-1.70243 0.9638,-3.6282 0.9638,-5.58376 z"
         id="path10272-2" />
      <path
         style="font-style:normal;font-variant:normal;font-weight:normal;font-stretch:normal;letter-spacing:normal;word-spacing:normal;text-anchor:start;fill:#000000;fill-opacity:1;fill-rule:evenodd;stroke:#000000;stroke-width:0;stroke-linecap:butt;stroke-linejoin:miter;stroke-miterlimit:10.43299961;stroke-dasharray:none;stroke-dashoffset:0;stroke-opacity:1"
         inkscape:connector-curvature="0"
         d="m 408.57702,728.40259 0.005,-0.0149 0.005,-0.01 0.005,-0.0149 0.005,-0.01 0.005,-0.0149 0.005,-0.01 0.005,-0.0149 0.005,-0.01 0.005,-0.01 0.005,-0.01 0.005,-0.01 v -0.0149 l 0.0104,-0.0149 0.005,-0.0198 0.005,-0.0199 0.0104,-0.0149 0.005,-0.0149 0.005,-0.0149 v -0.0149 l 0.005,-0.01 0.005,-0.0149 0.005,-0.01 v -0.01 l 0.005,-0.01 v -0.01 -0.01 l 0.005,-0.01 v -0.005 -0.01 -0.005 -0.01 l 0.005,-0.005 v -0.0149 -0.0149 -0.01 c 0,-0.0794 0,-0.12408 -0.13024,-0.42188 l -4.54289,-11.37598 c -0.15629,-0.41692 -0.31259,-0.56582 -0.59391,-0.56582 -0.28654,0 -0.52098,0.21839 -0.52098,0.49137 0,0.0745 0,0.12408 0.13025,0.3921 l 4.60019,11.48021 -4.60019,11.42066 c -0.13025,0.27298 -0.13025,0.31765 -0.13025,0.44173 0,0.27299 0.23444,0.49634 0.52098,0.49634 0.33863,0 0.43762,-0.24817 0.54181,-0.49634 z"
         id="path10274-7" />
      <rect
         style="fill:#ffffff;fill-opacity:1;fill-rule:nonzero;stroke:#000000;stroke-width:1.16608906;stroke-linecap:round;stroke-linejoin:round;stroke-miterlimit:4;stroke-dasharray:none;stroke-dashoffset:0;stroke-opacity:1"
         id="rect9971"
         width="128.37828"
         height="64.454575"
         x="454.99744"
         y="676.59784"
         ry="0" />
      <path
         id="path9677"
         d="m 487.90389,699.69284 0.0734,-0.27158 0.0367,-0.13946 0.044,-0.13212 0.044,-0.12478 0.0514,-0.12477 0.0514,-0.12478 0.0587,-0.11744 0.0587,-0.11744 0.0734,-0.11744 0.0661,-0.1101 0.0807,-0.10276 0.0807,-0.10276 0.0954,-0.10275 0.0954,-0.0881 0.10276,-0.0954 0.1101,-0.0881 0.12478,-0.0807 0.12477,-0.0807 0.13946,-0.0734 0.13946,-0.0661 0.15414,-0.0661 0.16882,-0.0587 0.16882,-0.0587 0.19083,-0.0514 0.19084,-0.044 0.20552,-0.044 0.2202,-0.0294 0.22753,-0.0367 0.24222,-0.022 0.2569,-0.022 0.13212,-0.007 h 0.13946 c 0.18349,0 0.61655,-0.0367 0.61655,-0.734 0,-0.0367 0,-0.40369 -0.46976,-0.40369 -1.20374,0 -2.48823,0.11744 -3.72867,0.11744 -1.24779,0 -2.60568,-0.11744 -3.80942,-0.11744 -0.21286,0 -0.65326,0 -0.65326,0.73399 0,0.4037 0.367,0.4037 0.65326,0.4037 2.09187,0.0294 2.48823,0.80005 2.48823,1.6001 0,0.11744 -0.0807,0.66793 -0.1101,0.77069 l -3.29562,13.06506 c -1.23311,4.89572 -5.44622,8.07391 -9.1015,8.07391 -2.48089,0 -4.46267,-1.60745 -4.46267,-4.74893 0,-0.0807 0,-1.24779 0.40369,-2.85523 l 3.55252,-14.22476 c 0.32296,-1.31385 0.4037,-1.68084 3.07543,-1.68084 0.93951,0 1.23311,0 1.23311,-0.734 0,-0.40369 -0.39636,-0.40369 -0.5138,-0.40369 -1.02025,0 -3.65528,0.11744 -4.67553,0.11744 -1.05694,0 -3.66262,-0.11744 -4.71956,-0.11744 -0.2936,0 -0.6973,0 -0.6973,0.73399 0,0.4037 0.3303,0.4037 1.03493,0.4037 0.0661,0 0.76335,0 1.38725,0.0661 0.65325,0.0807 0.98355,0.11743 0.98355,0.58719 0,0.22754 -0.4037,1.75424 -0.61656,2.59833 l -0.81473,3.21488 c -0.32295,1.43129 -2.0772,8.33815 -2.22399,9.03544 -0.2569,1.02025 -0.2569,1.57075 -0.2569,2.12124 0,4.46267 3.32498,7.01696 7.1711,7.01696 4.59479,0 9.1382,-4.12503 10.34195,-8.9547 z"
         inkscape:connector-curvature="0"
         style="font-style:normal;font-variant:normal;font-weight:normal;font-stretch:normal;letter-spacing:normal;word-spacing:normal;text-anchor:start;fill:#000000;fill-opacity:1;fill-rule:evenodd;stroke:#000000;stroke-width:0;stroke-linecap:butt;stroke-linejoin:miter;stroke-miterlimit:10.43299961;stroke-dasharray:none;stroke-dashoffset:0;stroke-opacity:1" />
      <path
         id="path9679"
         d="m 505.66649,729.60301 v -0.0147 -0.022 -0.007 -0.0147 l -0.007,-0.007 v -0.0147 l -0.007,-0.007 v -0.0147 l -0.007,-0.0147 -0.007,-0.0147 -0.007,-0.0147 -0.0147,-0.022 -0.007,-0.0147 -0.0147,-0.022 -0.0147,-0.022 -0.022,-0.022 -0.0147,-0.022 -0.022,-0.0294 -0.0147,-0.0147 -0.0147,-0.0147 -0.007,-0.0147 -0.0147,-0.0147 -0.0147,-0.0147 -0.0147,-0.022 -0.0147,-0.0147 -0.0147,-0.0147 -0.022,-0.022 -0.0147,-0.0147 -0.0147,-0.022 -0.022,-0.022 -0.022,-0.022 -0.0147,-0.022 -0.022,-0.022 -0.022,-0.022 -0.022,-0.022 -0.022,-0.022 -0.0294,-0.0294 -0.022,-0.022 -0.0294,-0.0294 -0.022,-0.022 -0.0294,-0.0294 -0.0294,-0.0294 c -4.56543,-4.60946 -5.73248,-11.51633 -5.73248,-17.10935 0,-6.36371 1.38725,-12.73476 5.87928,-17.29284 0.46975,-0.44774 0.46975,-0.52114 0.46975,-0.63124 0,-0.25689 -0.13212,-0.35965 -0.35231,-0.35965 -0.367,0 -3.66262,2.48089 -5.81322,7.11972 -1.87168,4.02961 -2.30473,8.08859 -2.30473,11.16401 0,2.85523 0.39635,7.26652 2.40749,11.40624 2.1873,4.49937 5.34346,6.87016 5.71046,6.87016 0.22019,0 0.35231,-0.10276 0.35231,-0.36699 z"
         inkscape:connector-curvature="0"
         style="font-style:normal;font-variant:normal;font-weight:normal;font-stretch:normal;letter-spacing:normal;word-spacing:normal;text-anchor:start;fill:#000000;fill-opacity:1;fill-rule:evenodd;stroke:#000000;stroke-width:0;stroke-linecap:butt;stroke-linejoin:miter;stroke-miterlimit:10.43299961;stroke-dasharray:none;stroke-dashoffset:0;stroke-opacity:1" />
      <path
         id="path9681"
         d="m 519.96465,709.78522 0.022,-0.0954 0.022,-0.1101 0.0294,-0.11744 0.0367,-0.13212 0.0367,-0.13946 0.044,-0.15414 0.0514,-0.16148 0.0514,-0.16147 0.0587,-0.16882 0.0661,-0.17616 0.0661,-0.1835 0.0807,-0.17616 0.0807,-0.18349 0.0881,-0.1835 0.0954,-0.1835 0.0954,-0.1835 0.1101,-0.17616 0.11744,-0.17615 0.11744,-0.16882 0.13212,-0.16148 0.13946,-0.16148 0.1468,-0.1468 0.15413,-0.13945 0.16148,-0.13212 0.16882,-0.11744 0.17616,-0.10276 0.0954,-0.0514 0.0954,-0.044 0.0954,-0.0367 0.10275,-0.0367 0.10276,-0.0367 0.10276,-0.0294 0.1101,-0.022 0.10276,-0.022 0.11744,-0.0147 0.1101,-0.0147 0.11744,-0.007 h 0.11743 c 0.1835,0 1.05695,0 1.82764,0.46976 -1.02024,0.1835 -1.75424,1.10099 -1.75424,1.97444 0,0.57985 0.39636,1.28448 1.38725,1.28448 0.80005,0 1.97444,-0.65325 1.97444,-2.12124 0,-1.90837 -2.15794,-2.40749 -3.39839,-2.40749 -2.12123,0 -3.40572,1.93774 -3.83877,2.77449 -0.91749,-2.40749 -2.89193,-2.77449 -3.94888,-2.77449 -3.80942,0 -5.89395,4.71223 -5.89395,5.62972 0,0.36699 0.36699,0.36699 0.44773,0.36699 0.28626,0 0.4037,-0.0807 0.46976,-0.40369 1.24044,-3.87548 3.65527,-4.79297 4.89572,-4.79297 0.69729,0 1.97444,0.32296 1.97444,2.4442 0,1.13034 -0.61655,3.58922 -1.97444,8.70514 -0.58719,2.26803 -1.857,3.80208 -3.47178,3.80208 -0.2202,0 -1.05695,0 -1.82764,-0.4771 0.91749,-0.17616 1.72488,-0.93951 1.72488,-1.97444 0,-0.98355 -0.80739,-1.2698 -1.35788,-1.2698 -1.10099,0 -2.01848,0.94685 -2.01848,2.12123 0,1.67351 1.83498,2.4075 3.44242,2.4075 2.42217,0 3.72868,-2.56163 3.83878,-2.77449 0.44039,1.35054 1.76158,2.77449 3.94887,2.77449 3.77272,0 5.85726,-4.71223 5.85726,-5.62972 0,-0.367 -0.3303,-0.367 -0.44774,-0.367 -0.31561,0 -0.39635,0.1468 -0.46975,0.39636 -1.20375,3.91218 -3.69198,4.79297 -4.85903,4.79297 -1.43128,0 -2.01847,-1.16705 -2.01847,-2.41484 0,-0.80739 0.22019,-1.60744 0.63123,-3.21488 z"
         inkscape:connector-curvature="0"
         style="font-style:normal;font-variant:normal;font-weight:normal;font-stretch:normal;letter-spacing:normal;word-spacing:normal;text-anchor:start;fill:#000000;fill-opacity:1;fill-rule:evenodd;stroke:#000000;stroke-width:0;stroke-linecap:butt;stroke-linejoin:miter;stroke-miterlimit:10.43299961;stroke-dasharray:none;stroke-dashoffset:0;stroke-opacity:1" />
      <path
         id="path9683"
         d="m 536.03908,720.7951 v -0.22019 l -0.007,-0.2202 -0.0147,-0.21286 -0.0147,-0.20552 -0.0294,-0.19818 -0.022,-0.19083 -0.0367,-0.19084 -0.0367,-0.17616 -0.044,-0.17616 -0.044,-0.16882 -0.0514,-0.16147 -0.0587,-0.15414 -0.0587,-0.1468 -0.0661,-0.13946 -0.0734,-0.13946 -0.0734,-0.12478 -0.0807,-0.11743 -0.0807,-0.11744 -0.0881,-0.10276 -0.0881,-0.0954 -0.0954,-0.0954 -0.0954,-0.0807 -0.10276,-0.0734 -0.10276,-0.0734 -0.1101,-0.0587 -0.11744,-0.0514 -0.11009,-0.044 -0.12478,-0.0367 -0.12478,-0.0294 -0.12478,-0.022 -0.12478,-0.007 -0.13946,-0.007 c -1.20374,0 -1.93774,0.91749 -1.93774,1.93773 0,0.98355 0.734,1.93774 1.93774,1.93774 0.4404,0 0.91749,-0.1468 1.28449,-0.46975 0.1101,-0.0807 0.15414,-0.11744 0.1835,-0.11744 0.0367,0 0.0734,0.0367 0.0734,0.55049 0,2.70843 -1.27715,4.90307 -2.48824,6.10682 -0.40369,0.39635 -0.40369,0.47709 -0.40369,0.57985 0,0.26424 0.1835,0.40369 0.36699,0.40369 0.4037,0 3.32499,-2.81118 3.32499,-7.09036 z"
         inkscape:connector-curvature="0"
         style="font-style:normal;font-variant:normal;font-weight:normal;font-stretch:normal;letter-spacing:normal;word-spacing:normal;text-anchor:start;fill:#000000;fill-opacity:1;fill-rule:evenodd;stroke:#000000;stroke-width:0;stroke-linecap:butt;stroke-linejoin:miter;stroke-miterlimit:10.43299961;stroke-dasharray:none;stroke-dashoffset:0;stroke-opacity:1" />
      <path
         id="path9687"
         d="m 573.61946,711.6936 v -0.27157 l -0.007,-0.28626 -0.007,-0.28626 -0.007,-0.30093 -0.0294,-0.61656 -0.044,-0.64591 -0.0587,-0.67527 -0.0807,-0.69729 -0.0954,-0.71198 -0.12477,-0.74133 -0.13946,-0.74867 -0.16882,-0.75601 -0.19818,-0.77069 -0.22754,-0.77803 -0.25689,-0.78538 -0.28626,-0.78537 -0.15414,-0.38901 -0.16882,-0.38902 -0.16882,-0.38901 -0.18349,-0.38902 c -2.19464,-4.49203 -5.33612,-6.87016 -5.70312,-6.87016 -0.2202,0 -0.367,0.13945 -0.367,0.35965 0,0.1101 0,0.1835 0.68996,0.84409 3.58922,3.61124 5.67375,9.4318 5.67375,17.07999 0,6.24627 -1.35054,12.68338 -5.89395,17.29285 -0.46976,0.43306 -0.46976,0.5138 -0.46976,0.61656 0,0.22019 0.1468,0.36699 0.367,0.36699 0.367,0 3.64794,-2.48823 5.81322,-7.12706 1.85699,-4.01494 2.29739,-8.07391 2.29739,-11.14934 z"
         inkscape:connector-curvature="0"
         style="font-style:normal;font-variant:normal;font-weight:normal;font-stretch:normal;letter-spacing:normal;word-spacing:normal;text-anchor:start;fill:#000000;fill-opacity:1;fill-rule:evenodd;stroke:#000000;stroke-width:0;stroke-linecap:butt;stroke-linejoin:miter;stroke-miterlimit:10.43299961;stroke-dasharray:none;stroke-dashoffset:0;stroke-opacity:1" />
      <path
         sodipodi:nodetypes="cscc"
         inkscape:connector-curvature="0"
         id="path10609"
         d="m 614.38445,680.15346 c 5.49343,0.0789 7.98006,1.89007 8.15614,8.35698 0.18437,6.77142 -2.62307,10.04233 -8.15614,10.12297 z"
         style="fill:#000000;fill-rule:evenodd;stroke:#000000;stroke-width:0.58076888px;stroke-linecap:butt;stroke-linejoin:miter;stroke-opacity:1" />
      <path
         sodipodi:nodetypes="cscc"
         inkscape:connector-curvature="0"
         id="path10609-9"
         d="m 614.38445,719.04421 c 5.49344,0.0789 7.98007,1.89007 8.15615,8.35698 0.18437,6.77142 -2.62307,10.04233 -8.15615,10.12297 z"
         style="fill:#000000;fill-rule:evenodd;stroke:#000000;stroke-width:0.58076888px;stroke-linecap:butt;stroke-linejoin:miter;stroke-opacity:1" />
      <flowRoot
         xml:space="preserve"
         id="flowRoot3102-4-3"
         style="font-style:normal;font-weight:normal;line-height:0.01%;font-family:sans-serif;letter-spacing:0px;word-spacing:0px;fill:#000000;fill-opacity:1;stroke:none;stroke-width:1px;stroke-linecap:butt;stroke-linejoin:miter;stroke-opacity:1"
         transform="matrix(0.71468261,0,0,0.71468261,308.92236,246.10012)"><flowRegion
           id="flowRegion3104-7-6"><rect
             id="rect3106-9-0"
             width="312.85715"
             height="79.285713"
             x="142.85715"
             y="538.94824" /></flowRegion><flowPara
           id="flowPara3108-3-6"
           style="font-style:normal;font-variant:normal;font-weight:500;font-stretch:normal;font-size:40px;line-height:1.25;font-family:aakar;-inkscape-font-specification:'aakar, Medium';font-variant-ligatures:normal;font-variant-caps:normal;font-variant-numeric:normal;font-feature-settings:normal;text-align:start;writing-mode:lr-tb;text-anchor:start">variational circuit</flowPara></flowRoot>    </g>
    <flowRoot
       transform="matrix(0.71468261,0,0,0.71468261,158.33787,-229.76003)"
       style="font-style:normal;font-weight:normal;line-height:0.01%;font-family:sans-serif;text-align:center;letter-spacing:0px;word-spacing:0px;text-anchor:middle;fill:#000000;fill-opacity:1;stroke:none;stroke-width:1px;stroke-linecap:butt;stroke-linejoin:miter;stroke-opacity:1"
       id="flowRoot3102-4-2"
       xml:space="preserve"
       inkscape:export-xdpi="300"
       inkscape:export-ydpi="300"><flowRegion
         style="text-align:center;text-anchor:middle"
         id="flowRegion3104-7-61"><rect
           style="text-align:center;text-anchor:middle"
           y="538.94824"
           x="142.85715"
           height="82.096611"
           width="348.46234"
           id="rect3106-9-8" /></flowRegion><flowPara
         id="flowPara11803-9"
         style="font-style:normal;font-variant:normal;font-weight:500;font-stretch:normal;font-size:40px;line-height:1.25;font-family:aakar;-inkscape-font-specification:'aakar, Medium';font-variant-ligatures:normal;font-variant-caps:normal;font-variant-numeric:normal;font-feature-settings:normal;text-align:center;writing-mode:lr-tb;text-anchor:middle">hybrid computation</flowPara></flowRoot>    <path
       inkscape:connector-curvature="0"
       id="path11885"
       d="M 9.151794,218.22013 V 191.43442 H 703.03571 v 29.46428"
       style="fill:none;fill-rule:evenodd;stroke:#000000;stroke-width:0.93749994px;stroke-linecap:butt;stroke-linejoin:miter;stroke-opacity:1"
       sodipodi:nodetypes="cccc"
       inkscape:export-xdpi="300"
       inkscape:export-ydpi="300" />
    <text
       xml:space="preserve"
       style="font-style:normal;font-variant:normal;font-weight:normal;font-stretch:normal;line-height:0%;font-family:'Bitstream Charter';-inkscape-font-specification:'Bitstream Charter, Normal';text-align:center;letter-spacing:0px;word-spacing:0px;writing-mode:lr-tb;text-anchor:middle;fill:#000000;fill-opacity:1;stroke:none;stroke-width:1px;stroke-linecap:butt;stroke-linejoin:miter;stroke-opacity:1"
       x="455.30338"
       y="423.34363"
       id="text20998-3"
       inkscape:export-xdpi="300"
       inkscape:export-ydpi="300"><tspan
         sodipodi:role="line"
         id="tspan21008-8"
         x="455.30338"
         y="423.34363"
         style="font-style:normal;font-variant:normal;font-weight:normal;font-stretch:normal;font-size:25px;line-height:125%;font-family:'Bitstream Charter';-inkscape-font-specification:'Bitstream Charter, Normal';text-align:center;writing-mode:lr-tb;text-anchor:middle">quantum</tspan><tspan
         sodipodi:role="line"
         id="tspan21010-0"
         x="455.30338"
         y="454.59363"
         style="font-style:normal;font-variant:normal;font-weight:normal;font-stretch:normal;font-size:25px;line-height:125%;font-family:'Bitstream Charter';-inkscape-font-specification:'Bitstream Charter, Normal';text-align:center;writing-mode:lr-tb;text-anchor:middle">node</tspan></text>
    <path
       style="fill:none;fill-rule:evenodd;stroke:#000000;stroke-width:1px;stroke-linecap:butt;stroke-linejoin:miter;stroke-opacity:1;marker-end:url(#marker33148-3-3)"
       d="m 676.56912,384.32949 h 23.44661"
       id="path23484-7-7"
       inkscape:connector-type="polyline"
       inkscape:connector-curvature="0"
       sodipodi:nodetypes="cc"
       inkscape:export-xdpi="300"
       inkscape:export-ydpi="300" />
    <path
       style="font-style:normal;font-variant:normal;font-weight:normal;font-stretch:normal;letter-spacing:normal;word-spacing:normal;text-anchor:start;fill:#000000;fill-opacity:1;fill-rule:evenodd;stroke:#000000;stroke-width:0;stroke-linecap:butt;stroke-linejoin:miter;stroke-miterlimit:10.43299961;stroke-dasharray:none;stroke-dashoffset:0;stroke-opacity:1"
       inkscape:connector-curvature="0"
       d="m 544.90461,438.2062 h 2.76032 c 0.637,0 0.95872,0 0.95872,-0.637 0,-0.35389 -0.32172,-0.35389 -0.86864,-0.35389 h -2.65737 l 0.66917,-3.6547 c 0.12868,-0.67561 0.57909,-2.94693 0.77212,-3.33299 0.28954,-0.60482 0.83646,-1.0874 1.50563,-1.0874 0.12869,0 0.96515,0 1.57641,0.57909 -1.41555,0.12226 -1.73727,1.24826 -1.73727,1.7244 0,0.73995 0.57909,1.12601 1.19035,1.12601 0.83003,0 1.76301,-0.70778 1.76301,-1.92386 0,-1.47347 -1.47346,-2.21341 -2.7925,-2.21341 -1.0874,0 -3.10778,0.57909 -4.0665,3.75121 -0.19303,0.67561 -0.28954,0.99089 -1.06166,5.03165 h -2.20698 c -0.61126,0 -0.96515,0 -0.96515,0.61126 0,0.37963 0.28955,0.37963 0.90081,0.37963 h 2.11689 l -2.40644,12.66276 c -0.57909,3.10778 -1.126,6.02897 -2.78606,6.02897 -0.12869,0 -0.93298,0 -1.54424,-0.57909 1.47346,-0.0965 1.76301,-1.24826 1.76301,-1.73084 0,-0.73995 -0.57266,-1.11957 -1.18392,-1.11957 -0.83003,0 -1.76301,0.70134 -1.76301,1.91743 0,1.44772 1.40912,2.21341 2.72816,2.21341 1.75657,0 3.04344,-1.89169 3.61609,-3.10778 1.0295,-2.02038 1.76301,-5.90028 1.79518,-6.11905 z"
       id="path47749"
       inkscape:export-xdpi="300"
       inkscape:export-ydpi="300" />
    <path
       style="font-style:normal;font-variant:normal;font-weight:normal;font-stretch:normal;letter-spacing:normal;word-spacing:normal;text-anchor:start;fill:#000000;fill-opacity:1;fill-rule:evenodd;stroke:#000000;stroke-width:0;stroke-linecap:butt;stroke-linejoin:miter;stroke-miterlimit:10.43299961;stroke-dasharray:none;stroke-dashoffset:0;stroke-opacity:1"
       inkscape:connector-curvature="0"
       d="m 562.41242,458.72528 v -0.0193 -0.0193 l -0.006,-0.006 v -0.0129 -0.006 l -0.006,-0.0129 v -0.0129 l -0.006,-0.006 -0.006,-0.0129 -0.006,-0.0129 -0.006,-0.0193 -0.006,-0.0129 -0.0129,-0.0129 -0.0129,-0.0193 -0.0129,-0.0193 -0.0129,-0.0193 -0.0193,-0.0193 -0.0193,-0.0257 -0.006,-0.0129 -0.0129,-0.0129 -0.0129,-0.0129 -0.0129,-0.0129 -0.0129,-0.0129 -0.0129,-0.0193 -0.0129,-0.0129 -0.0129,-0.0129 -0.0129,-0.0193 -0.0193,-0.0129 -0.0129,-0.0193 -0.0193,-0.0193 -0.0129,-0.0193 -0.0193,-0.0193 -0.0193,-0.0193 -0.0193,-0.0193 -0.0193,-0.0193 -0.0193,-0.0193 -0.0257,-0.0257 -0.0193,-0.0193 -0.0257,-0.0257 -0.0193,-0.0193 -0.0257,-0.0257 -0.0257,-0.0257 c -4.00859,-4.04076 -5.03164,-10.09546 -5.03164,-14.99842 0,-5.57857 1.21608,-11.15714 5.16033,-15.16572 0.41823,-0.37963 0.41823,-0.44397 0.41823,-0.54049 0,-0.2252 -0.12869,-0.32171 -0.32172,-0.32171 -0.32171,0 -3.20429,2.18123 -5.09599,6.25417 -1.63432,3.51958 -2.02038,7.07776 -2.02038,9.77375 0,2.49652 0.35389,6.37642 2.1169,9.99895 1.92386,3.93781 4.67776,6.02253 4.99947,6.02253 0.19303,0 0.32172,-0.0965 0.32172,-0.31528 z"
       id="path47751"
       inkscape:export-xdpi="300"
       inkscape:export-ydpi="300" />
    <path
       style="font-style:normal;font-variant:normal;font-weight:normal;font-stretch:normal;letter-spacing:normal;word-spacing:normal;text-anchor:start;fill:#000000;fill-opacity:1;fill-rule:evenodd;stroke:#000000;stroke-width:0;stroke-linecap:butt;stroke-linejoin:miter;stroke-miterlimit:10.43299961;stroke-dasharray:none;stroke-dashoffset:0;stroke-opacity:1"
       inkscape:connector-curvature="0"
       d="m 575.3776,441.35258 0.0193,-0.0836 0.0193,-0.0965 0.0322,-0.10938 0.0257,-0.11582 0.0386,-0.12225 0.0386,-0.13512 0.0386,-0.13512 0.045,-0.14799 0.0515,-0.14799 0.0579,-0.15443 0.0643,-0.16086 0.0643,-0.15442 0.0708,-0.16086 0.0772,-0.16086 0.0837,-0.16085 0.0901,-0.16086 0.0965,-0.15443 0.0965,-0.15442 0.10938,-0.14799 0.11582,-0.14155 0.11582,-0.14156 0.12868,-0.12869 0.13512,-0.12225 0.14156,-0.11582 0.14799,-0.10295 0.16086,-0.0901 0.0772,-0.045 0.0837,-0.0386 0.0836,-0.0322 0.0901,-0.0322 0.0901,-0.0322 0.0901,-0.0257 0.0901,-0.0193 0.0965,-0.0193 0.0965,-0.0129 0.10295,-0.0129 0.10295,-0.006 h 0.10295 c 0.16086,0 0.93298,0 1.60215,0.41823 -0.90081,0.16086 -1.5378,0.95871 -1.5378,1.7244 0,0.51475 0.35388,1.12601 1.21608,1.12601 0.70778,0 1.73084,-0.57909 1.73084,-1.85952 0,-1.6665 -1.89169,-2.1169 -2.9791,-2.1169 -1.85952,0 -2.98553,1.69866 -3.36515,2.43861 -0.79786,-2.11689 -2.53513,-2.43861 -3.46167,-2.43861 -3.33298,0 -5.16033,4.13728 -5.16033,4.93513 0,0.32172 0.32171,0.32172 0.38606,0.32172 0.25093,0 0.34745,-0.0643 0.41179,-0.34746 1.09384,-3.40376 3.21073,-4.20161 4.29814,-4.20161 0.60482,0 1.73083,0.28954 1.73083,2.14263 0,0.99732 -0.54692,3.14639 -1.73083,7.63112 -0.51475,1.9882 -1.63432,3.33298 -3.04344,3.33298 -0.19303,0 -0.93298,0 -1.60215,-0.41823 0.79786,-0.16086 1.50563,-0.83003 1.50563,-1.73084 0,-0.8622 -0.70777,-1.11957 -1.19035,-1.11957 -0.95871,0 -1.75657,0.83646 -1.75657,1.85952 0,1.47346 1.59571,2.1169 3.01127,2.1169 2.11046,0 3.26864,-2.24559 3.35872,-2.43862 0.39249,1.19036 1.54424,2.43862 3.4681,2.43862 3.30081,0 5.12816,-4.13728 5.12816,-4.93514 0,-0.32171 -0.28954,-0.32171 -0.38606,-0.32171 -0.28954,0 -0.35389,0.12868 -0.41823,0.35389 -1.05523,3.42949 -3.23647,4.19518 -4.25953,4.19518 -1.24826,0 -1.763,-1.02306 -1.763,-2.1169 0,-0.70134 0.19303,-1.40911 0.54692,-2.81823 z"
       id="path47753"
       inkscape:export-xdpi="300"
       inkscape:export-ydpi="300" />
    <path
       style="font-style:normal;font-variant:normal;font-weight:normal;font-stretch:normal;letter-spacing:normal;word-spacing:normal;text-anchor:start;fill:#000000;fill-opacity:1;fill-rule:evenodd;stroke:#000000;stroke-width:0;stroke-linecap:butt;stroke-linejoin:miter;stroke-miterlimit:10.43299961;stroke-dasharray:none;stroke-dashoffset:0;stroke-opacity:1"
       inkscape:connector-curvature="0"
       d="m 588.83822,438.91397 v -0.0836 l -0.006,-0.0901 -0.0129,-0.0836 -0.0129,-0.0837 -0.0193,-0.0772 -0.0257,-0.0837 -0.0257,-0.0772 -0.0322,-0.0772 -0.0322,-0.0772 -0.0386,-0.0708 -0.0386,-0.0708 -0.045,-0.0708 -0.0515,-0.0643 -0.045,-0.0643 -0.0579,-0.0643 -0.0579,-0.0579 -0.0579,-0.0579 -0.0579,-0.0515 -0.0643,-0.0515 -0.0708,-0.045 -0.0643,-0.045 -0.0708,-0.045 -0.0772,-0.0386 -0.0708,-0.0322 -0.0772,-0.0322 -0.0837,-0.0257 -0.0772,-0.0257 -0.0837,-0.0129 -0.0836,-0.0193 -0.0837,-0.0129 -0.0836,-0.006 h -0.0837 c -0.93298,0 -1.7051,0.77212 -1.7051,1.69866 0,0.93298 0.77212,1.69867 1.7051,1.69867 0.92654,0 1.69223,-0.76569 1.69223,-1.69867 z"
       id="path47755"
       inkscape:export-xdpi="300"
       inkscape:export-ydpi="300" />
    <path
       style="font-style:normal;font-variant:normal;font-weight:normal;font-stretch:normal;letter-spacing:normal;word-spacing:normal;text-anchor:start;fill:#000000;fill-opacity:1;fill-rule:evenodd;stroke:#000000;stroke-width:0;stroke-linecap:butt;stroke-linejoin:miter;stroke-miterlimit:10.43299961;stroke-dasharray:none;stroke-dashoffset:0;stroke-opacity:1"
       inkscape:connector-curvature="0"
       d="m 588.23339,450.67593 v 0.0901 0.0965 l -0.006,0.10939 v 0.11582 l -0.006,0.12225 v 0.12869 l -0.0129,0.14155 -0.006,0.14156 -0.0129,0.15442 -0.0193,0.16086 -0.0193,0.16086 -0.0257,0.17372 -0.0322,0.17373 -0.0322,0.1866 -0.0386,0.18659 -0.045,0.19303 -0.0515,0.19303 -0.0579,0.19947 -0.0643,0.20589 -0.0708,0.2059 -0.0772,0.2059 -0.0901,0.21877 -0.0965,0.21233 -0.10295,0.21877 -0.10939,0.21877 -0.12225,0.21876 -0.13512,0.2252 -0.14156,0.21877 -0.15442,0.2252 -0.16086,0.21877 -0.17372,0.2252 -0.1866,0.2252 c -0.2252,0.25738 -0.2252,0.32172 -0.2252,0.41824 0,0.21876 0.16086,0.34745 0.32171,0.34745 0.35389,0 2.66382,-2.56086 2.66382,-6.27991 0,-0.92654 -0.0708,-3.30081 -1.79518,-3.30081 -1.12601,0 -1.7051,0.86864 -1.7051,1.69866 0,0.83647 0.54692,1.69867 1.7051,1.69867 0.15442,0 0.21877,0 0.25094,-0.0322 0.2252,-0.0322 0.57909,-0.0965 0.83646,-0.32172 z"
       id="path47757"
       inkscape:export-xdpi="300"
       inkscape:export-ydpi="300" />
    <path
       style="font-style:normal;font-variant:normal;font-weight:normal;font-stretch:normal;letter-spacing:normal;word-spacing:normal;text-anchor:start;fill:#000000;fill-opacity:1;fill-rule:evenodd;stroke:#000000;stroke-width:0;stroke-linecap:butt;stroke-linejoin:miter;stroke-miterlimit:10.43299961;stroke-dasharray:none;stroke-dashoffset:0;stroke-opacity:1"
       inkscape:connector-curvature="0"
       d="m 614.37608,435.32362 -0.006,-0.26381 -0.006,-0.25094 -0.0129,-0.25094 -0.0129,-0.23807 -0.0257,-0.23807 -0.0193,-0.23164 -0.0322,-0.21876 -0.0322,-0.21877 -0.0386,-0.21233 -0.045,-0.2059 -0.045,-0.19947 -0.045,-0.19303 -0.0515,-0.18659 -0.0579,-0.1866 -0.12225,-0.34745 -0.13513,-0.32815 -0.14798,-0.30242 -0.15443,-0.28954 -0.16729,-0.26381 -0.18016,-0.25094 -0.1866,-0.23163 -0.18659,-0.2059 -0.19947,-0.19947 -0.2059,-0.17372 -0.21233,-0.1673 -0.21233,-0.14155 -0.21877,-0.13512 -0.21877,-0.11582 -0.21876,-0.10938 -0.21877,-0.0901 -0.2252,-0.0772 -0.21877,-0.0708 -0.21877,-0.0579 -0.21233,-0.045 -0.21233,-0.0322 -0.2059,-0.0322 -0.19947,-0.0193 -0.19303,-0.006 -0.18659,-0.006 -0.0643,1.15175 c 1.34478,0 1.92387,1.41555 1.92387,3.30724 0,2.01395 -0.70778,4.80645 -1.06166,6.15122 h -6.69814 c 0.4504,-1.85952 1.28043,-4.77427 2.24558,-6.44076 0.73995,-1.31904 2.05255,-3.0177 3.59035,-3.0177 l 0.0643,-1.15175 c -2.53513,0 -5.73943,1.66649 -8.13943,6.02254 -1.63432,3.0177 -2.63164,7.37374 -2.63164,9.97321 0,4.64559 2.43861,6.76248 5.32119,6.76248 l 0.0643,-1.15174 c -0.4504,0 -1.11957,-0.12869 -1.56997,-1.12601 -0.38606,-0.8622 -0.38606,-2.1169 -0.38606,-2.14907 0,-1.82735 0.70777,-4.80644 1.06166,-6.18339 h 6.69814 c -1.98821,8.58983 -4.68419,9.45847 -5.80377,9.45847 l -0.0643,1.15174 c 2.14907,0 4.9673,-1.24826 7.18071,-4.5169 2.68955,-3.94424 3.55819,-9.04024 3.55819,-11.44667 z"
       id="path47759"
       inkscape:export-xdpi="300"
       inkscape:export-ydpi="300" />
    <path
       style="font-style:normal;font-variant:normal;font-weight:normal;font-stretch:normal;letter-spacing:normal;word-spacing:normal;text-anchor:start;fill:#000000;fill-opacity:1;fill-rule:evenodd;stroke:#000000;stroke-width:0;stroke-linecap:butt;stroke-linejoin:miter;stroke-miterlimit:10.43299961;stroke-dasharray:none;stroke-dashoffset:0;stroke-opacity:1"
       inkscape:connector-curvature="0"
       d="m 625.41096,443.01908 -0.006,-0.23808 v -0.25093 l -0.006,-0.25094 -0.006,-0.26381 -0.0257,-0.54048 -0.0386,-0.56623 -0.0579,-0.59195 -0.0643,-0.60483 -0.0901,-0.63057 -0.10295,-0.64343 -0.12869,-0.6563 -0.14799,-0.66917 -0.17373,-0.67561 -0.19303,-0.68203 -0.2252,-0.68204 -0.25094,-0.68848 -0.14155,-0.34102 -0.14156,-0.34745 -0.15442,-0.34102 -0.16086,-0.34102 c -1.92386,-3.93781 -4.67776,-6.02253 -4.99947,-6.02253 -0.19303,0 -0.32172,0.12868 -0.32172,0.32171 0,0.0965 0,0.16086 0.60483,0.73995 3.14638,3.16569 4.97373,8.26812 4.97373,14.96626 0,5.48205 -1.19035,11.11852 -5.16033,15.15928 -0.41823,0.38606 -0.41823,0.44397 -0.41823,0.54692 0,0.18659 0.12869,0.31528 0.32172,0.31528 0.32171,0 3.20429,-2.1748 5.09599,-6.24774 1.63432,-3.52601 2.02038,-7.08419 2.02038,-9.77374 z"
       id="path47761"
       inkscape:export-xdpi="300"
       inkscape:export-ydpi="300" />
    <path
       style="font-style:normal;font-variant:normal;font-weight:normal;font-stretch:normal;letter-spacing:normal;word-spacing:normal;text-anchor:start;fill:#000000;fill-opacity:1;fill-rule:evenodd;stroke:#000000;stroke-width:0;stroke-linecap:butt;stroke-linejoin:miter;stroke-miterlimit:10.43299961;stroke-dasharray:none;stroke-dashoffset:0;stroke-opacity:1"
       inkscape:connector-curvature="0"
       d="m 523.79692,619.54198 -0.007,-0.32589 -0.007,-0.31002 -0.0159,-0.31001 -0.0159,-0.29411 -0.0317,-0.29411 -0.0238,-0.28616 -0.0398,-0.27024 -0.0398,-0.27026 -0.0477,-0.26232 -0.0556,-0.25436 -0.0556,-0.24642 -0.0556,-0.23846 -0.0636,-0.23053 -0.0715,-0.23052 -0.15103,-0.42924 -0.16693,-0.40541 -0.18283,-0.37359 -0.19077,-0.3577 -0.20667,-0.32592 -0.22257,-0.31001 -0.23052,-0.28615 -0.23051,-0.25437 -0.24643,-0.24641 -0.25437,-0.21463 -0.26231,-0.20667 -0.26231,-0.17488 -0.27026,-0.16693 -0.27027,-0.14308 -0.27026,-0.13513 -0.27026,-0.11131 -0.27821,-0.0954 -0.27027,-0.0875 -0.27027,-0.0715 -0.26231,-0.0556 -0.26231,-0.0398 -0.25437,-0.0398 -0.24642,-0.0239 -0.23847,-0.007 -0.23051,-0.007 -0.0794,1.42286 c 1.66133,0 2.37674,1.74876 2.37674,4.08575 0,2.48799 -0.87439,5.93783 -1.31158,7.59915 h -8.27483 c 0.55642,-2.29723 1.58183,-5.8981 2.77417,-7.95685 0.91413,-1.62953 2.53571,-3.72805 4.4355,-3.72805 l 0.0794,-1.42286 c -3.13189,0 -7.09046,2.05878 -10.0554,7.44018 -2.01903,3.72805 -3.25112,9.10947 -3.25112,12.32084 0,5.73912 3.01265,8.35433 6.57377,8.35433 l 0.0794,-1.42286 c -0.55642,0 -1.38311,-0.15898 -1.93953,-1.39105 -0.47693,-1.06517 -0.47693,-2.6152 -0.47693,-2.65496 0,-2.25749 0.87437,-5.93786 1.31157,-7.63892 h 8.27484 c -2.45623,10.61182 -5.78682,11.68493 -7.16995,11.68493 l -0.0794,1.42286 c 2.65495,0 6.13657,-1.54209 8.871,-5.58015 3.32266,-4.8727 4.39577,-11.16826 4.39577,-14.14116 z"
       id="path47759-3"
       inkscape:export-xdpi="300"
       inkscape:export-ydpi="300" />
  </g>
</svg>
