<?xml version="1.0" encoding="UTF-8" standalone="no"?>
<svg
   viewBox="0 0 401.14999 49.439999"
   version="1.1"
   id="svg52"
   sodipodi:docname="pennylane.svg"
   width="140"
   height="17.25"
   inkscape:version="1.2 (dc2aedaf03, 2022-05-15)"
   xmlns:inkscape="http://www.inkscape.org/namespaces/inkscape"
   xmlns:sodipodi="http://sodipodi.sourceforge.net/DTD/sodipodi-0.dtd"
   xmlns="http://www.w3.org/2000/svg"
   xmlns:svg="http://www.w3.org/2000/svg">
  <sodipodi:namedview
     id="namedview54"
     pagecolor="#ffffff"
     bordercolor="#666666"
     borderopacity="1.0"
     inkscape:showpageshadow="2"
     inkscape:pageopacity="0.0"
     inkscape:pagecheckerboard="0"
     inkscape:deskcolor="#d1d1d1"
     showgrid="false"
     inkscape:zoom="2.42"
     inkscape:cx="115.70248"
     inkscape:cy="-70.661157"
     inkscape:window-width="1920"
     inkscape:window-height="1017"
     inkscape:window-x="-8"
     inkscape:window-y="-8"
     inkscape:window-maximized="1"
     inkscape:current-layer="svg52" />
  <defs
     id="defs4">
    <style
       id="style2">.cls-1{fill:none;}.cls-2{fill:#00b1ff;}.cls-3{fill:#ffbe0c;}.cls-4{fill:#ff00d9;}</style>
  </defs>
  <g
     id="g44"
     transform="translate(-49.43,-240.06)">
    <path
       d="m 75.27,241.87 c -2.02,-1.2 -4.35,-1.8 -6.99,-1.8 H 51.55 c -0.56,0 -1.06,0.21 -1.48,0.64 -0.42,0.42 -0.64,0.92 -0.64,1.48 v 45.16 c 0,0.56 0.19,1.06 0.56,1.48 0.38,0.42 0.89,0.64 1.55,0.64 0.56,0 1.06,-0.21 1.48,-0.64 0.42,-0.42 0.64,-0.92 0.64,-1.48 v -18.77 h 14.61 c 2.63,0 4.96,-0.63 6.99,-1.9 2.02,-1.27 3.62,-3 4.8,-5.19 1.18,-2.19 1.76,-4.65 1.76,-7.37 0,-2.72 -0.59,-5.15 -1.76,-7.27 -1.18,-2.12 -2.78,-3.78 -4.8,-4.98 z m 1.02,17.5 c -0.78,1.58 -1.85,2.82 -3.21,3.74 -1.37,0.92 -2.96,1.38 -4.8,1.38 H 53.67 v -20.25 h 14.61 c 1.83,0 3.43,0.42 4.8,1.27 1.36,0.85 2.43,2.01 3.21,3.49 0.78,1.48 1.16,3.19 1.16,5.12 0,1.93 -0.39,3.68 -1.16,5.26 z"
       id="path26" />
    <path
       d="m 120.69,244.23 c 0.56,0 1.06,-0.19 1.48,-0.56 0.42,-0.38 0.64,-0.87 0.64,-1.48 0,-0.61 -0.21,-1.12 -0.64,-1.52 -0.42,-0.4 -0.92,-0.6 -1.48,-0.6 h -25.9 c -0.56,0 -1.06,0.21 -1.48,0.64 -0.42,0.42 -0.64,0.92 -0.64,1.48 v 45.16 c 0,0.56 0.21,1.06 0.64,1.48 0.42,0.42 0.92,0.64 1.48,0.64 h 25.9 c 0.56,0 1.06,-0.19 1.48,-0.56 0.42,-0.38 0.64,-0.87 0.64,-1.48 0,-0.56 -0.21,-1.06 -0.64,-1.48 -0.42,-0.42 -0.92,-0.63 -1.48,-0.63 H 97.12 v -19.19 h 20.39 c 0.56,0 1.06,-0.19 1.48,-0.56 0.42,-0.38 0.64,-0.87 0.64,-1.48 0,-0.56 -0.21,-1.06 -0.64,-1.48 -0.42,-0.42 -0.92,-0.63 -1.48,-0.63 H 97.12 v -17.71 h 23.57 z"
       id="path28" />
    <path
       d="m 448.46,285.31 h -23.57 v -19.19 h 20.39 c 0.56,0 1.06,-0.19 1.48,-0.56 0.42,-0.38 0.64,-0.87 0.64,-1.48 0,-0.56 -0.21,-1.06 -0.64,-1.48 -0.42,-0.42 -0.92,-0.63 -1.48,-0.63 h -20.39 v -17.71 h 23.57 c 0.56,0 1.06,-0.19 1.48,-0.56 0.42,-0.38 0.64,-0.87 0.64,-1.48 0,-0.61 -0.21,-1.12 -0.64,-1.52 -0.42,-0.4 -0.92,-0.6 -1.48,-0.6 h -25.9 c -0.56,0 -1.06,0.21 -1.48,0.64 -0.42,0.42 -0.64,0.92 -0.64,1.48 v 45.16 c 0,0.56 0.21,1.06 0.64,1.48 0.42,0.42 0.92,0.64 1.48,0.64 h 25.9 c 0.56,0 1.06,-0.19 1.48,-0.56 0.42,-0.38 0.64,-0.87 0.64,-1.48 0,-0.56 -0.21,-1.06 -0.64,-1.48 -0.42,-0.42 -0.92,-0.63 -1.48,-0.63 z"
       id="path30" />
    <path
       d="m 170.61,240.07 c -0.52,0 -0.98,0.19 -1.38,0.56 -0.4,0.38 -0.6,0.85 -0.6,1.41 v 39.77 l -30.42,-40.97 c -0.19,-0.28 -0.45,-0.48 -0.78,-0.6 -0.33,-0.12 -0.64,-0.18 -0.92,-0.18 -0.52,0 -0.99,0.18 -1.41,0.53 -0.42,0.35 -0.64,0.88 -0.64,1.59 v 45.38 c 0,0.52 0.18,0.96 0.53,1.34 0.35,0.38 0.83,0.56 1.45,0.56 0.56,0 1.03,-0.19 1.41,-0.56 0.38,-0.38 0.56,-0.82 0.56,-1.34 v -39.61 l 30.27,40.81 c 0.19,0.24 0.45,0.41 0.78,0.53 0.33,0.12 0.64,0.18 0.92,0.18 0.56,0 1.07,-0.2 1.52,-0.6 0.45,-0.4 0.67,-0.95 0.67,-1.66 v -45.16 c 0,-0.56 -0.18,-1.03 -0.53,-1.41 -0.35,-0.38 -0.84,-0.56 -1.45,-0.56 z"
       id="path32" />
    <path
       d="m 220.39,240.07 c -0.52,0 -0.98,0.19 -1.38,0.56 -0.4,0.38 -0.6,0.85 -0.6,1.41 v 39.77 l -30.42,-40.97 c -0.19,-0.28 -0.45,-0.48 -0.78,-0.6 -0.33,-0.12 -0.64,-0.18 -0.92,-0.18 -0.52,0 -0.99,0.18 -1.41,0.53 -0.42,0.35 -0.64,0.88 -0.64,1.59 v 45.38 c 0,0.52 0.18,0.96 0.53,1.34 0.35,0.38 0.83,0.56 1.45,0.56 0.56,0 1.03,-0.19 1.41,-0.56 0.38,-0.38 0.56,-0.82 0.56,-1.34 v -39.61 l 30.27,40.81 c 0.19,0.24 0.45,0.41 0.78,0.53 0.33,0.12 0.64,0.18 0.92,0.18 0.56,0 1.07,-0.2 1.52,-0.6 0.45,-0.4 0.67,-0.95 0.67,-1.66 v -45.16 c 0,-0.56 -0.18,-1.03 -0.53,-1.41 -0.35,-0.38 -0.84,-0.56 -1.45,-0.56 z"
       id="path34" />
    <path
       d="m 406.79,240.07 c -0.52,0 -0.98,0.19 -1.38,0.56 -0.4,0.38 -0.6,0.85 -0.6,1.41 v 39.77 l -30.42,-40.97 c -0.19,-0.28 -0.45,-0.48 -0.78,-0.6 -0.33,-0.12 -0.64,-0.18 -0.92,-0.18 -0.52,0 -0.99,0.18 -1.41,0.53 -0.42,0.35 -0.64,0.88 -0.64,1.59 v 45.38 c 0,0.52 0.18,0.96 0.53,1.34 0.35,0.38 0.83,0.56 1.45,0.56 0.56,0 1.03,-0.19 1.41,-0.56 0.38,-0.38 0.56,-0.82 0.56,-1.34 v -39.61 l 30.27,40.81 c 0.19,0.24 0.45,0.41 0.78,0.53 0.33,0.12 0.64,0.18 0.92,0.18 0.56,0 1.07,-0.2 1.52,-0.6 0.45,-0.4 0.67,-0.95 0.67,-1.66 v -45.16 c 0,-0.56 -0.18,-1.03 -0.53,-1.41 -0.35,-0.38 -0.84,-0.56 -1.45,-0.56 z"
       id="path36" />
    <path
       d="m 266.9,240.07 c -0.75,0 -1.36,0.33 -1.82,0.98 l -14.2,19.77 -14.5,-19.77 c -0.47,-0.65 -1.05,-0.98 -1.75,-0.98 -0.52,0 -1.02,0.2 -1.51,0.6 -0.49,0.4 -0.74,0.9 -0.74,1.51 0,0.24 0.05,0.48 0.14,0.74 0.09,0.26 0.23,0.5 0.42,0.74 l 15.72,21.48 v 22.23 c 0,0.56 0.2,1.05 0.6,1.47 0.4,0.42 0.9,0.63 1.51,0.63 0.61,0 1.12,-0.21 1.54,-0.63 0.42,-0.42 0.63,-0.91 0.63,-1.47 v -22.35 l 15.65,-21.51 c 0.14,-0.23 0.25,-0.46 0.32,-0.67 0.07,-0.21 0.11,-0.43 0.11,-0.67 0,-0.51 -0.2,-0.99 -0.6,-1.44 -0.4,-0.44 -0.9,-0.67 -1.51,-0.67 z"
       id="path38" />
    <path
       d="m 306.33,285.31 h -22.86 v -43.12 c 0,-0.56 -0.22,-1.06 -0.67,-1.48 -0.45,-0.42 -0.95,-0.64 -1.52,-0.64 -0.66,0 -1.2,0.21 -1.62,0.64 -0.42,0.42 -0.64,0.92 -0.64,1.48 v 45.16 c 0,0.56 0.2,1.06 0.6,1.48 0.4,0.42 0.91,0.64 1.52,0.64 h 25.19 c 0.56,0 1.06,-0.2 1.48,-0.6 0.42,-0.4 0.63,-0.91 0.63,-1.52 0,-0.56 -0.21,-1.05 -0.63,-1.45 -0.42,-0.4 -0.92,-0.6 -1.48,-0.6 z"
       id="path40" />
    <path
       d="m 340.4,241.47 c -0.19,-0.42 -0.46,-0.76 -0.81,-1.02 -0.35,-0.26 -0.76,-0.39 -1.23,-0.39 -0.47,0 -0.88,0.11 -1.23,0.32 -0.35,0.21 -0.64,0.57 -0.88,1.09 l -18.52,45.33 c -0.09,0.33 -0.12,0.61 -0.07,0.84 0.05,0.51 0.23,0.95 0.56,1.3 0.33,0.35 0.82,0.53 1.47,0.53 0.42,0 0.8,-0.12 1.12,-0.35 0.33,-0.23 0.58,-0.58 0.77,-1.05 l 16.48,-40.97 16.78,40.97 c 0.19,0.42 0.46,0.76 0.81,1.02 0.35,0.26 0.76,0.39 1.23,0.39 0.56,0 1.05,-0.18 1.47,-0.53 0.42,-0.35 0.63,-0.85 0.63,-1.51 0,-0.28 -0.05,-0.56 -0.14,-0.84 l -18.46,-45.12 z"
       id="path42" />
  </g>
  <g
     id="boxes"
     transform="translate(-49.43,-240.06)">
    <rect
       class="cls-1"
       width="500"
       height="339"
       id="rect49"
       x="0"
       y="0" />
  </g>
</svg>
