<?xml version="1.0" encoding="UTF-8" standalone="no"?>
<svg
   xmlns:dc="http://purl.org/dc/elements/1.1/"
   xmlns:cc="http://creativecommons.org/ns#"
   xmlns:rdf="http://www.w3.org/1999/02/22-rdf-syntax-ns#"
   xmlns:svg="http://www.w3.org/2000/svg"
   xmlns="http://www.w3.org/2000/svg"
   version="1.1"
   id="svg2"
   viewBox="0 0 79.182602 9.7624999"
   height="2.7551944mm"
   width="22.34709mm">
  <defs
     id="defs4" />
  <metadata
     id="metadata7">
    <rdf:RDF>
      <cc:Work
         rdf:about="">
        <dc:format>image/svg+xml</dc:format>
        <dc:type
           rdf:resource="http://purl.org/dc/dcmitype/StillImage" />
        <dc:title></dc:title>
      </cc:Work>
    </rdf:RDF>
  </metadata>
  <g
     transform="translate(-242.63857,-246.88542)"
     id="layer1">
    <flowRoot
       style="font-style:normal;font-variant:normal;font-weight:normal;font-stretch:normal;font-size:60px;line-height:125%;font-family:'Averta Std';-inkscape-font-specification:'Averta Std';letter-spacing:0px;word-spacing:0px;fill:#000000;fill-opacity:1;stroke:none;stroke-width:1px;stroke-linecap:butt;stroke-linejoin:miter;stroke-opacity:1"
       id="flowRoot4136"
       xml:space="preserve"><flowRegion
         id="flowRegion4138"><rect
           style="font-style:normal;font-variant:normal;font-weight:normal;font-stretch:normal;font-size:60px;font-family:'Averta Std';-inkscape-font-specification:'Averta Std'"
           y="185.21935"
           x="134.28572"
           height="151.42857"
           width="525.71429"
           id="rect4140" /></flowRegion><flowPara
         id="flowPara4142"></flowPara></flowRoot>    <flowRoot
       style="font-style:normal;font-weight:normal;font-size:13.75px;line-height:125%;font-family:sans-serif;letter-spacing:0px;word-spacing:0px;fill:#000000;fill-opacity:1;stroke:none;stroke-width:1px;stroke-linecap:butt;stroke-linejoin:miter;stroke-opacity:1"
       id="flowRoot4144"
       xml:space="preserve"><flowRegion
         id="flowRegion4146"><rect
           y="179.50507"
           x="131.42857"
           height="181.42857"
           width="195.71428"
           id="rect4148" /></flowRegion><flowPara
         id="flowPara4150"></flowPara></flowRoot>    <text
       id="text4152"
       y="285.21936"
       x="212.85715"
       style="font-style:normal;font-variant:normal;font-weight:normal;font-stretch:normal;font-size:50px;line-height:125%;font-family:'Averta Std';-inkscape-font-specification:'Averta Std';letter-spacing:0px;word-spacing:0px;fill:#000000;fill-opacity:0;stroke:none;stroke-width:1px;stroke-linecap:butt;stroke-linejoin:miter;stroke-opacity:1"
       xml:space="preserve"><tspan
         y="285.21936"
         x="212.85715"
         id="tspan4154" /></text>
    <g
       id="text4156"
       style="font-style:normal;font-weight:normal;font-size:13.75px;line-height:125%;font-family:sans-serif;letter-spacing:0px;word-spacing:0px;fill:#000000;fill-opacity:1;stroke:none;stroke-width:1px;stroke-linecap:butt;stroke-linejoin:miter;stroke-opacity:1">
      <path
         d="m 315.55117,256.64792 6.27,0 0,-1.08625 -5.07375,0 0,-3.23125 3.91875,0 0,-1.08625 -3.91875,0 0,-3.2725 4.785,0 0,-1.08625 -5.98125,0 z m -10.33935,0 1.19625,0 0,-7.68625 0.0275,0 5.45875,7.68625 1.22375,0 0,-9.7625 -1.19625,0 0,7.76875 -0.0138,0 -5.51375,-7.76875 -1.1825,0 0,9.7625 z m -10.15825,0 1.25125,0 0.86625,-2.37875 4.35875,0 0.88,2.37875 1.25125,0 -3.7125,-9.7625 -1.19625,0 z m 2.11979,-2.37797 2.15646,-5.94078 0.0275,0 2.16818,5.94071 z m -8.98791,2.37797 6.0225,0 0,-1.08625 -4.82625,0 0,-8.67625 -1.19625,0 z m -5.96149,0 1.19625,0 0,-4.35875 3.34125,-5.40375 -1.4025,0 -2.51625,4.19375 -0.0275,0 -2.53,-4.19375 -1.375,0 3.31375,5.40375 z m -12.64935,0 1.19625,0 0,-7.68625 0.0275,0 5.45875,7.68625 1.22375,0 0,-9.7625 -1.19625,0 0,7.76875 -0.0137,0 -5.51375,-7.76875 -1.1825,0 0,9.7625 z m -10.33936,0 1.19625,0 0,-7.68625 0.0275,0 5.45875,7.68625 1.22375,0 0,-9.7625 -1.19625,0 0,7.76875 -0.0137,0 -5.51375,-7.76875 -1.1825,0 0,9.7625 z m -8.16406,0 6.27,0 0,-1.08625 -5.07375,0 0,-3.23125 3.91875,0 0,-1.08625 -3.91875,0 0,-3.2725 4.785,0 0,-1.08625 -5.98125,0 z m -8.43262,0 1.19625,0 0,-3.72625 2.0075,0 c 2.035,0 3.4375,-0.94875 3.4375,-3.01125 0,-1.7325 -0.94875,-3.025 -3.23125,-3.025 l -3.41,0 z m 1.19625,-4.8125 0,-3.86375 2.09,0 c 1.30625,0 2.1175,0.66 2.1175,1.91125 0,1.1275 -0.6875,1.9525 -2.31,1.9525 z"
         style="font-style:normal;font-variant:normal;font-weight:normal;font-stretch:normal;font-family:'Averta Std';-inkscape-font-specification:'Averta Std'"
         id="path4197" />
    </g>
  </g>
</svg>
