<?xml version="1.0" encoding="UTF-8" standalone="no"?>
<!-- Created with Inkscape (http://www.inkscape.org/) -->

<svg
   xmlns:dc="http://purl.org/dc/elements/1.1/"
   xmlns:cc="http://creativecommons.org/ns#"
   xmlns:rdf="http://www.w3.org/1999/02/22-rdf-syntax-ns#"
   xmlns:svg="http://www.w3.org/2000/svg"
   xmlns="http://www.w3.org/2000/svg"
   xmlns:sodipodi="http://sodipodi.sourceforge.net/DTD/sodipodi-0.dtd"
   xmlns:inkscape="http://www.inkscape.org/namespaces/inkscape"
   width="68.443489mm"
   height="39.435337mm"
   viewBox="0 0 242.5163 139.73151"
   id="svg2"
   version="1.1"
   inkscape:version="0.92.3 (2405546, 2018-03-11)"
   sodipodi:docname="vc_general.svg">
  <sodipodi:namedview
     id="base"
     pagecolor="#ffffff"
     bordercolor="#666666"
     borderopacity="1.0"
     inkscape:pageopacity="0.0"
     inkscape:pageshadow="2"
     inkscape:zoom="4"
     inkscape:cx="30.31245"
     inkscape:cy="75.424179"
     inkscape:document-units="px"
     inkscape:current-layer="layer1"
     showgrid="false"
     inkscape:window-width="2866"
     inkscape:window-height="1889"
     inkscape:window-x="134"
     inkscape:window-y="55"
     inkscape:window-maximized="1"
     fit-margin-top="0"
     fit-margin-left="0"
     fit-margin-right="0"
     fit-margin-bottom="5"
     inkscape:snap-global="false" />
  <defs
     id="defs4" />
  <metadata
     id="metadata7">
    <rdf:RDF>
      <cc:Work
         rdf:about="">
        <dc:format>image/svg+xml</dc:format>
        <dc:type
           rdf:resource="http://purl.org/dc/dcmitype/StillImage" />
        <dc:title></dc:title>
      </cc:Work>
    </rdf:RDF>
  </metadata>
  <g
     transform="translate(-277.94004,-356.73694)"
     id="layer1"
     inkscape:groupmode="layer"
     inkscape:label="Layer 1">
    <g
       id="g42061"
       transform="translate(42.373718,38)" />
    <g
       id="g1483"
       transform="translate(0,-7.1525576e-6)">
      <path
         inkscape:connector-curvature="0"
         id="path38311"
         d="M 298.90601,394.38657 H 499.36107"
         style="fill:none;fill-rule:evenodd;stroke:#000000;stroke-width:0.74701041;stroke-linecap:butt;stroke-linejoin:miter;stroke-miterlimit:4;stroke-dasharray:none;stroke-opacity:1" />
      <path
         sodipodi:nodetypes="cc"
         inkscape:connector-curvature="0"
         id="path38311-1"
         d="m 498.12628,394.3118 h 22.33007"
         style="fill:none;fill-rule:evenodd;stroke:#000000;stroke-width:0.74701041;stroke-linecap:butt;stroke-linejoin:miter;stroke-miterlimit:4;stroke-dasharray:0.74701041, 2.24103125;stroke-dashoffset:0;stroke-opacity:1" />
      <path
         sodipodi:nodetypes="cc"
         inkscape:connector-curvature="0"
         id="path38311-1-9"
         d="m 277.94004,394.14607 h 22.33007"
         style="fill:none;fill-rule:evenodd;stroke:#000000;stroke-width:0.74701041;stroke-linecap:butt;stroke-linejoin:miter;stroke-miterlimit:4;stroke-dasharray:0.74701044, 2.24103135;stroke-dashoffset:0;stroke-opacity:1" />
    </g>
    <g
       id="g1488"
       transform="translate(0,-0.62499763)">
      <path
         inkscape:connector-curvature="0"
         id="path38311-8"
         d="M 298.90601,415.8856 H 499.36107"
         style="fill:none;fill-rule:evenodd;stroke:#000000;stroke-width:0.74701041;stroke-linecap:butt;stroke-linejoin:miter;stroke-miterlimit:4;stroke-dasharray:none;stroke-opacity:1" />
      <path
         sodipodi:nodetypes="cc"
         inkscape:connector-curvature="0"
         id="path38311-8-2"
         d="m 498.12628,415.81083 h 22.33007"
         style="fill:none;fill-rule:evenodd;stroke:#000000;stroke-width:0.74701041;stroke-linecap:butt;stroke-linejoin:miter;stroke-miterlimit:4;stroke-dasharray:0.74701041, 2.24103125;stroke-dashoffset:0;stroke-opacity:1" />
      <path
         sodipodi:nodetypes="cc"
         inkscape:connector-curvature="0"
         id="path38311-8-2-2"
         d="m 277.94004,415.6451 h 22.33007"
         style="fill:none;fill-rule:evenodd;stroke:#000000;stroke-width:0.74701041;stroke-linecap:butt;stroke-linejoin:miter;stroke-miterlimit:4;stroke-dasharray:0.74701044, 2.24103135;stroke-dashoffset:0;stroke-opacity:1" />
    </g>
    <g
       id="g1493"
       transform="translate(0.33145632,-3.1249928)">
      <path
         inkscape:connector-curvature="0"
         id="path38311-83"
         d="M 298.90601,439.25963 H 499.36107"
         style="fill:none;fill-rule:evenodd;stroke:#000000;stroke-width:0.74701041;stroke-linecap:butt;stroke-linejoin:miter;stroke-miterlimit:4;stroke-dasharray:none;stroke-opacity:1" />
      <path
         sodipodi:nodetypes="cc"
         inkscape:connector-curvature="0"
         id="path38311-83-8"
         d="m 498.12628,439.18486 h 22.33007"
         style="fill:none;fill-rule:evenodd;stroke:#000000;stroke-width:0.74701041;stroke-linecap:butt;stroke-linejoin:miter;stroke-miterlimit:4;stroke-dasharray:0.74701041, 2.24103125;stroke-dashoffset:0;stroke-opacity:1" />
      <path
         sodipodi:nodetypes="cc"
         inkscape:connector-curvature="0"
         id="path38311-83-8-8"
         d="m 277.94004,439.01913 h 22.33007"
         style="fill:none;fill-rule:evenodd;stroke:#000000;stroke-width:0.74701041;stroke-linecap:butt;stroke-linejoin:miter;stroke-miterlimit:4;stroke-dasharray:0.74701044, 2.24103135;stroke-dashoffset:0;stroke-opacity:1" />
    </g>
    <g
       id="g1503">
      <path
         inkscape:connector-curvature="0"
         id="path38311-5"
         d="M 298.90601,457.00867 H 499.36107"
         style="fill:none;fill-rule:evenodd;stroke:#000000;stroke-width:0.74701041;stroke-linecap:butt;stroke-linejoin:miter;stroke-miterlimit:4;stroke-dasharray:none;stroke-opacity:1" />
      <path
         sodipodi:nodetypes="cc"
         inkscape:connector-curvature="0"
         id="path38311-5-8"
         d="m 498.12628,456.9339 h 22.33007"
         style="fill:none;fill-rule:evenodd;stroke:#000000;stroke-width:0.74701041;stroke-linecap:butt;stroke-linejoin:miter;stroke-miterlimit:4;stroke-dasharray:0.74701041, 2.24103125;stroke-dashoffset:0;stroke-opacity:1" />
      <path
         sodipodi:nodetypes="cc"
         inkscape:connector-curvature="0"
         id="path38311-5-8-8"
         d="m 277.94004,456.76817 h 22.33007"
         style="fill:none;fill-rule:evenodd;stroke:#000000;stroke-width:0.74701041;stroke-linecap:butt;stroke-linejoin:miter;stroke-miterlimit:4;stroke-dasharray:0.74701044, 2.24103135;stroke-dashoffset:0;stroke-opacity:1" />
    </g>
    <rect
       style="opacity:1;fill:#ffffff;fill-opacity:1;stroke:#000000;stroke-width:0.46461794;stroke-linejoin:round;stroke-miterlimit:4;stroke-dasharray:none;stroke-dashoffset:0;stroke-opacity:1"
       id="rect38346-723"
       width="76.257072"
       height="84.966362"
       x="317.93979"
       y="384.92563"
       ry="0" />
    <rect
       style="opacity:1;fill:#ffffff;fill-opacity:1;stroke:#000000;stroke-width:0.46910134;stroke-linejoin:round;stroke-miterlimit:4;stroke-dasharray:none;stroke-dashoffset:0;stroke-opacity:1"
       id="rect38346-723-9"
       width="76.252594"
       height="86.619164"
       x="409.41489"
       y="384.14114"
       ry="0" />
    <g
       id="g1116"
       transform="matrix(1.2303481,0,0,1.2303481,352.82806,364.2618)">
      <g
         id="g1114"
         transform="matrix(0.2129242,0,0,-0.2129242,-37.261736,194.01304)"
         xml:space="preserve"
         stroke-miterlimit="10.433"
         font-style="normal"
         font-variant="normal"
         font-weight="normal"
         font-stretch="normal"
         font-size-adjust="none"
         letter-spacing="normal"
         word-spacing="normal"
         style="font-style:normal;font-variant:normal;font-weight:normal;font-stretch:normal;letter-spacing:normal;word-spacing:normal;text-anchor:start;fill:none;fill-opacity:1;fill-rule:evenodd;stroke:#000000;stroke-linecap:butt;stroke-linejoin:miter;stroke-miterlimit:10.43299961;stroke-dasharray:none;stroke-dashoffset:0;stroke-opacity:1"><path
           d="m 502.64223,670.1844 -0.02,-0.11 -0.03,-0.1 -0.03,-0.1 -0.03,-0.1 -0.03,-0.08 -0.03,-0.09 -0.03,-0.08 -0.03,-0.07 -0.04,-0.07 -0.04,-0.07 -0.04,-0.06 -0.05,-0.06 -0.05,-0.05 -0.06,-0.05 -0.06,-0.05 -0.07,-0.04 -0.08,-0.04 -0.09,-0.04 -0.09,-0.03 -0.1,-0.03 -0.11,-0.03 -0.06,-0.01 -0.06,-0.01 -0.07,-0.01 -0.06,-0.01 -0.07,-0.01 -0.07,-0.01 -0.08,-0.01 h -0.08 l -0.08,-0.01 -0.08,-0.01 h -0.09 l -0.08,-0.01 h -0.1 l -0.09,-0.01 h -0.1 -0.1 l -0.11,-0.01 h -0.11 -0.11 -0.12 -0.12 -0.12 c -0.58,0 -1.04,0 -1.04,-0.74 0,-0.51 0.41,-0.51 1.04,-0.51 h 13.48 c 5.86,0 10.36,4 10.36,7.45 0,2.49 -2.27,4.61 -5.97,4.99 4.22,0.76 7.75,3.42 7.75,6.4 0,2.66 -2.69,4.96 -7.22,4.96 l -0.56,-1.25 c 3.56,0 4.36,-2.35 4.36,-3.66 0,-2.83 -3.17,-6.03 -7.85,-6.03 h -5.7 l -0.25,-0.99 h 7.39 c 3.27,0 4.53,-2.15 4.53,-4.17 0,-3.45 -3.53,-6.45 -7.73,-6.45 h -5.63 c -1.07,0 -1.11,0.05 -1.11,0.36 0,0.03 0,0.2 0.15,0.72 l 2.4,9.54 0.25,0.99 2.13,8.5 c 0.26,1.08 0.31,1.19 1.76,1.19 h 5.3 l 0.56,1.25 h -12.69 c -0.65,0 -1.1,0 -1.1,-0.77 0,-0.48 0.42,-0.48 1.1,-0.48 0.04,0 0.71,0 1.33,-0.08 0.74,-0.06 0.8,-0.14 0.8,-0.49 0,-0.06 0,-0.23 -0.14,-0.76 z"
           id="path1102"
           inkscape:connector-curvature="0"
           style="fill:#000000;stroke-width:0" /><path
           d="m 540.19223,693.6044 -0.61,-0.45 -0.57,-0.46 -0.56,-0.47 -0.52,-0.49 -0.5,-0.5 -0.47,-0.51 -0.45,-0.53 -0.42,-0.53 -0.4,-0.54 -0.38,-0.55 -0.35,-0.56 -0.33,-0.56 -0.31,-0.57 -0.29,-0.57 -0.26,-0.58 -0.25,-0.58 -0.23,-0.58 -0.21,-0.58 -0.19,-0.59 -0.17,-0.58 -0.16,-0.58 -0.14,-0.58 -0.12,-0.57 -0.11,-0.57 -0.09,-0.57 -0.08,-0.56 -0.06,-0.55 -0.06,-0.55 -0.04,-0.53 -0.02,-0.53 -0.02,-0.52 v -0.5 c 0,-4.92 1.46,-12.55 8.37,-17.42 0.28,0 0.69,0 0.69,0.4 0,0.22 -0.1,0.28 -0.35,0.53 -4.64,4.19 -6.34,10.11 -6.34,16.46 0,9.4 3.59,14 6.45,16.58 0.14,0.14 0.24,0.25 0.24,0.42 0,0.42 -0.41,0.42 -0.69,0.42 z"
           id="path1104"
           inkscape:connector-curvature="0"
           style="fill:#000000;stroke-width:0" /><path
           d="m 565.48223,687.1844 -0.01,0.28 -0.02,0.28 -0.04,0.27 -0.05,0.26 -0.07,0.25 -0.08,0.24 -0.09,0.24 -0.11,0.23 -0.11,0.22 -0.13,0.21 -0.14,0.2 -0.16,0.2 -0.16,0.18 -0.17,0.18 -0.18,0.17 -0.19,0.16 -0.21,0.15 -0.2,0.14 -0.22,0.13 -0.23,0.13 -0.23,0.11 -0.24,0.11 -0.25,0.09 -0.25,0.09 -0.25,0.07 -0.27,0.07 -0.27,0.05 -0.27,0.05 -0.27,0.04 -0.28,0.02 -0.29,0.02 h -0.28 l -0.08,-0.97 c 2.06,0 3.48,-1.12 3.48,-3.25 v 0 c 0,-1.84 -0.9,-4.56 -3.06,-5.78 -0.65,0.22 -1.33,0.45 -3.27,0.45 -1.21,0 -2.96,-0.06 -2.96,-1.32 0,-0.86 1.08,-1 2.86,-1 l 0.06,0.93 c -0.55,0 -1.39,0.04 -1.63,0.18 0.35,0.2 1.32,0.25 1.63,0.25 0.53,0 1.29,-0.05 1.78,-0.18 v 0 c -0.52,-0.11 -0.77,-0.25 -1.78,-0.25 l -0.06,-0.93 c 1.18,0 2.23,0.17 3.31,0.48 1.04,-0.73 1.59,-2.16 1.59,-3.69 0,-5.06 -3.43,-8.82 -7.7,-8.82 -2.67,0 -4.6,1.64 -4.6,4.39 0,0.36 0.04,0.7 0.12,1.01 l 2.29,9.27 c 0.84,3.31 3.91,8.26 7.94,8.26 l 0.08,0.97 c -4.78,0 -8.3,-5.44 -9.18,-8.95 l -5.46,-21.95 c -0.07,-0.24 0.28,-0.43 0.48,-0.43 0.33,0 0.6,0.05 0.67,0.25 l 2.33,9.3 c 0.73,-1.59 2.41,-3.09 5.23,-3.09 4.88,0 10.38,3.51 10.38,8.84 0,2.06 -0.94,4.16 -2.72,5.3 1.72,1.08 3.99,3.08 3.99,5.89 z"
           id="path1106"
           inkscape:connector-curvature="0"
           style="fill:#000000;stroke-width:0" /><path
           d="m 570.91223,693.6044 h -0.02 -0.03 -0.02 -0.03 -0.02 -0.03 -0.03 l -0.03,-0.01 h -0.03 -0.02 l -0.03,-0.01 h -0.03 l -0.03,-0.01 -0.02,-0.01 h -0.03 l -0.03,-0.01 -0.02,-0.01 -0.03,-0.02 -0.02,-0.01 -0.02,-0.01 -0.02,-0.02 -0.02,-0.02 -0.02,-0.02 -0.01,-0.01 -0.01,-0.01 -0.01,-0.01 v -0.01 l -0.01,-0.01 -0.01,-0.02 v -0.01 l -0.01,-0.01 -0.01,-0.02 v -0.01 -0.02 l -0.01,-0.01 v -0.02 -0.02 l -0.01,-0.02 v -0.01 -0.02 -0.02 c 0,-0.17 0.11,-0.28 0.31,-0.53 3,-2.75 6.35,-7.46 6.35,-16.44 0,-7.28 -2.27,-12.8 -6.03,-16.2 -0.58,-0.6 -0.63,-0.63 -0.63,-0.82 0,-0.17 0.11,-0.4 0.46,-0.4 0.42,0 3.73,2.29 6.03,6.65 1.53,2.89 2.54,6.66 2.54,10.74 0,4.9 -1.47,12.53 -8.36,17.42 z"
           id="path1108"
           inkscape:connector-curvature="0"
           style="fill:#000000;stroke-width:0" /></g>    </g>
    <g
       id="g1262"
       transform="matrix(1.2303481,0,0,1.2303481,262.48606,299.11021)">
      <g
         word-spacing="normal"
         letter-spacing="normal"
         font-size-adjust="none"
         font-stretch="normal"
         font-weight="normal"
         font-variant="normal"
         font-style="normal"
         stroke-miterlimit="10.433"
         xml:space="preserve"
         transform="matrix(0.2129242,0,0,-0.2129242,-37.261736,194.01304)"
         id="g1260"
         style="font-style:normal;font-variant:normal;font-weight:normal;font-stretch:normal;letter-spacing:normal;word-spacing:normal;text-anchor:start;fill:none;fill-opacity:1;fill-rule:evenodd;stroke:#000000;stroke-linecap:butt;stroke-linejoin:miter;stroke-miterlimit:10.43299961;stroke-dasharray:none;stroke-dashoffset:0;stroke-opacity:1"><path
           id="path1248"
           d="m 491.08405,419.58405 -0.11,-0.18 -0.12,-0.17 -0.11,-0.16 -0.11,-0.16 -0.12,-0.15 -0.11,-0.14 -0.11,-0.14 -0.12,-0.14 -0.12,-0.13 -0.11,-0.12 -0.12,-0.12 -0.12,-0.12 -0.12,-0.1 -0.12,-0.11 -0.13,-0.1 -0.13,-0.09 -0.13,-0.09 -0.13,-0.08 -0.14,-0.08 -0.14,-0.07 -0.14,-0.07 -0.14,-0.06 -0.15,-0.06 -0.16,-0.05 -0.15,-0.05 -0.16,-0.04 -0.17,-0.04 -0.17,-0.03 -0.17,-0.03 -0.18,-0.03 -0.19,-0.02 -0.19,-0.01 c -0.34,-0.03 -0.8,-0.03 -0.8,-0.74 0,-0.37 0.32,-0.51 0.49,-0.51 0.9,0 2.06,0.14 3,0.14 1.11,0 2.54,-0.14 3.59,-0.14 0.17,0 0.69,0 0.69,0.76 0,0.46 -0.45,0.49 -0.58,0.49 -0.28,0.05 -1.55,0.11 -1.55,1.05 0,0.42 0.36,1.01 0.54,1.32 l 2.78,4.32 h 9.96 l -0.17,1.26 h -8.95 l 7.31,11.39 1.64,-11.39 0.17,-1.26 0.85,-5.78 c -0.14,-0.35 -0.36,-0.91 -2.41,-0.91 -0.42,0 -0.9,0 -0.9,-0.77 0,-0.14 0.09,-0.48 0.54,-0.48 1.02,0 3.49,0.14 4.5,0.14 0.63,0 1.42,-0.03 2.07,-0.03 0.62,-0.05 1.35,-0.11 1.98,-0.11 0.45,0 0.69,0.28 0.69,0.73 0,0.52 -0.41,0.52 -0.97,0.52 -2.02,0 -2.09,0.28 -2.2,1.12 l -3.07,21.5 c -0.11,0.72 -0.17,0.97 -0.82,0.97 -0.68,0 -0.88,-0.31 -1.19,-0.79 z"
           inkscape:connector-curvature="0"
           style="fill:#000000;stroke-width:0" /><path
           id="path1250"
           d="m 526.28405,441.53405 -0.6,-0.45 -0.58,-0.46 -0.55,-0.47 -0.53,-0.49 -0.5,-0.5 -0.47,-0.51 -0.45,-0.53 -0.42,-0.53 -0.4,-0.54 -0.37,-0.55 -0.36,-0.56 -0.33,-0.56 -0.31,-0.57 -0.28,-0.57 -0.27,-0.58 -0.25,-0.58 -0.23,-0.58 -0.2,-0.58 -0.2,-0.59 -0.17,-0.58 -0.15,-0.58 -0.14,-0.58 -0.13,-0.57 -0.1,-0.57 -0.1,-0.57 -0.08,-0.56 -0.06,-0.55 -0.05,-0.55 -0.04,-0.53 -0.03,-0.53 -0.02,-0.52 v -0.5 c 0,-4.92 1.47,-12.55 8.37,-17.42 0.29,0 0.69,0 0.69,0.4 0,0.22 -0.09,0.28 -0.34,0.53 -4.64,4.19 -6.35,10.11 -6.35,16.46 0,9.4 3.6,14 6.46,16.58 0.14,0.14 0.23,0.25 0.23,0.42 0,0.42 -0.4,0.42 -0.69,0.42 z"
           inkscape:connector-curvature="0"
           style="fill:#000000;stroke-width:0" /><path
           id="path1252"
           d="m 548.57405,420.30405 0.29,0.31 0.29,0.32 0.27,0.33 0.26,0.33 0.25,0.33 0.24,0.34 0.23,0.34 0.22,0.34 0.21,0.34 0.2,0.34 0.19,0.34 0.18,0.33 0.17,0.33 0.16,0.32 0.15,0.31 0.14,0.31 0.13,0.3 0.12,0.29 0.12,0.28 0.1,0.27 0.09,0.25 0.09,0.24 0.08,0.23 0.07,0.21 0.06,0.19 0.05,0.18 0.04,0.16 0.04,0.13 0.02,0.12 0.02,0.1 0.02,0.07 v 0.04 c 0,0.46 -0.42,0.46 -0.6,0.46 -0.5,0 -0.5,-0.1 -0.73,-0.86 -0.62,-2.32 -1.78,-4.44 -3.25,-6.32 -0.03,0.52 -0.09,2.86 -0.17,3.18 -0.52,3.45 -3.13,5.67 -6.61,5.67 l -0.05,-0.97 c 2.8,0 3.6,-2.69 3.88,-4.84 0.2,-1.5 0.14,-3.97 0.31,-5.82 v 0 c -3.42,-2.79 -6.38,-3.11 -7.7,-3.11 -2.3,0 -3.6,1.54 -3.6,3.88 0,1 0.5,4.8 2.32,7.2 1.59,2.1 3.57,2.69 4.79,2.69 l 0.05,0.97 c -5.12,0 -10.05,-4.77 -10.05,-9.64 0,-3.21 2.35,-6.06 6.38,-6.06 3.22,0 6.11,1.45 8.05,2.95 0.81,-2.55 2.59,-2.95 3.62,-2.95 2.03,0 3.28,1.7 3.28,2.43 0,0.42 -0.42,0.42 -0.59,0.42 -0.46,0 -0.52,-0.14 -0.6,-0.35 -0.48,-1.32 -1.56,-1.54 -1.98,-1.54 -0.48,0 -1.08,0 -1.25,4.29 z"
           inkscape:connector-curvature="0"
           style="fill:#000000;stroke-width:0" /><path
           id="path1254"
           d="m 558.57405,441.53405 h -0.03 -0.02 -0.03 -0.03 -0.02 -0.03 -0.03 l -0.03,-0.01 h -0.02 -0.03 l -0.03,-0.01 h -0.03 l -0.03,-0.01 -0.02,-0.01 h -0.03 l -0.02,-0.01 -0.03,-0.01 -0.02,-0.02 -0.03,-0.01 -0.02,-0.01 -0.02,-0.02 -0.02,-0.02 -0.02,-0.02 -0.01,-0.01 -0.01,-0.01 -0.01,-0.01 v -0.01 l -0.01,-0.01 -0.01,-0.02 v -0.01 l -0.01,-0.01 v -0.02 l -0.01,-0.01 v -0.02 l -0.01,-0.01 v -0.02 -0.02 -0.02 l -0.01,-0.01 v -0.02 -0.02 c 0,-0.17 0.11,-0.28 0.32,-0.53 3,-2.75 6.34,-7.46 6.34,-16.44 0,-7.28 -2.27,-12.8 -6.03,-16.2 -0.58,-0.6 -0.63,-0.63 -0.63,-0.82 0,-0.17 0.11,-0.4 0.46,-0.4 0.42,0 3.73,2.29 6.03,6.65 1.53,2.89 2.54,6.66 2.54,10.74 0,4.9 -1.46,12.53 -8.35,17.42 z"
           inkscape:connector-curvature="0"
           style="fill:#000000;stroke-width:0" /></g>    </g>
  </g>
</svg>
